<svg xmlns="http://www.w3.org/2000/svg" width="1721" height="796" fill="none" viewBox="0 0 1721 796"><path fill="url(#a)" d="M0 0h1721v796H0z"/><g clip-path="url(#b)"><path fill="#6F6F6F" d="m89.653 286-16.647-58.182h13.437l9.63 40.426h.484l10.625-40.426h11.506l10.596 40.512h.511l9.631-40.512h13.438L136.216 286h-11.989l-11.079-38.04h-.455L101.642 286H89.653Zm69.794 0v-58.182h39.205v10.142h-26.903v13.864h24.886v10.142h-24.886v13.892h27.017V286h-39.319Zm48.985 0v-58.182h23.295c4.281 0 7.851.635 10.711 1.904 2.859 1.269 5.009 3.03 6.448 5.284 1.44 2.235 2.159 4.81 2.159 7.727 0 2.273-.454 4.271-1.363 5.994a11.77 11.77 0 0 1-3.75 4.205c-1.572 1.079-3.371 1.846-5.398 2.301v.568c2.216.095 4.29.72 6.222 1.875 1.95 1.155 3.532 2.775 4.744 4.858 1.212 2.064 1.818 4.527 1.818 7.386 0 3.088-.767 5.843-2.301 8.268-1.515 2.405-3.759 4.308-6.733 5.71-2.973 1.401-6.638 2.102-10.994 2.102h-24.858Zm12.301-10.057h10.028c3.428 0 5.928-.653 7.5-1.96 1.572-1.326 2.358-3.087 2.358-5.284 0-1.61-.388-3.03-1.164-4.261-.777-1.232-1.885-2.197-3.324-2.898-1.421-.701-3.116-1.051-5.086-1.051h-10.312v15.454Zm0-23.778h9.119c1.686 0 3.182-.294 4.489-.881 1.326-.606 2.367-1.458 3.125-2.557.776-1.098 1.165-2.415 1.165-3.949 0-2.102-.748-3.797-2.245-5.085-1.477-1.288-3.579-1.932-6.306-1.932h-9.347v14.404Z"/><path fill="#252525" d="M86.585 391H73.403l20.086-58.182h15.852L129.398 391h-13.182l-14.574-44.886h-.454L86.585 391Zm-.824-22.869h31.137v9.602H85.761v-9.602Zm80.874-18.58c-.227-2.292-1.203-4.072-2.926-5.341-1.724-1.269-4.063-1.903-7.017-1.903-2.008 0-3.703.284-5.085.852-1.383.549-2.444 1.316-3.182 2.301-.72.985-1.08 2.102-1.08 3.352-.038 1.042.18 1.951.654 2.728.492.776 1.164 1.449 2.017 2.017.852.549 1.837 1.032 2.954 1.449 1.118.397 2.311.738 3.58 1.022l5.227 1.25c2.538.569 4.867 1.326 6.989 2.273 2.121.947 3.958 2.112 5.511 3.494a14.527 14.527 0 0 1 3.608 4.887c.871 1.875 1.316 4.024 1.335 6.449-.019 3.56-.928 6.647-2.727 9.261-1.78 2.595-4.356 4.612-7.727 6.051-3.353 1.421-7.396 2.131-12.131 2.131-4.697 0-8.788-.72-12.273-2.159-3.466-1.44-6.174-3.57-8.125-6.392-1.932-2.841-2.945-6.354-3.04-10.54h11.904c.132 1.951.691 3.579 1.676 4.886 1.004 1.288 2.339 2.264 4.006 2.926 1.685.644 3.589.966 5.71.966 2.083 0 3.892-.303 5.426-.909 1.553-.606 2.756-1.449 3.608-2.528.852-1.08 1.278-2.32 1.278-3.722 0-1.307-.388-2.405-1.164-3.295-.758-.89-1.875-1.648-3.353-2.273-1.458-.625-3.248-1.193-5.369-1.704l-6.335-1.591c-4.905-1.194-8.779-3.059-11.62-5.597-2.84-2.538-4.251-5.956-4.232-10.256-.019-3.522.918-6.6 2.812-9.233 1.913-2.632 4.536-4.687 7.869-6.164 3.334-1.478 7.122-2.216 11.364-2.216 4.318 0 8.087.738 11.307 2.216 3.238 1.477 5.757 3.532 7.557 6.164 1.799 2.633 2.727 5.682 2.784 9.148h-11.79Zm52.422 0c-.227-2.292-1.203-4.072-2.926-5.341-1.724-1.269-4.063-1.903-7.017-1.903-2.008 0-3.703.284-5.086.852-1.382.549-2.443 1.316-3.181 2.301-.72.985-1.08 2.102-1.08 3.352-.038 1.042.18 1.951.653 2.728.493.776 1.165 1.449 2.018 2.017.852.549 1.837 1.032 2.954 1.449 1.117.397 2.311.738 3.58 1.022l5.227 1.25c2.538.569 4.867 1.326 6.989 2.273 2.121.947 3.958 2.112 5.511 3.494a14.527 14.527 0 0 1 3.608 4.887c.871 1.875 1.316 4.024 1.335 6.449-.019 3.56-.928 6.647-2.727 9.261-1.781 2.595-4.356 4.612-7.727 6.051-3.353 1.421-7.396 2.131-12.131 2.131-4.697 0-8.788-.72-12.273-2.159-3.466-1.44-6.174-3.57-8.125-6.392-1.932-2.841-2.945-6.354-3.04-10.54h11.904c.132 1.951.691 3.579 1.676 4.886 1.004 1.288 2.339 2.264 4.006 2.926 1.685.644 3.589.966 5.71.966 2.083 0 3.892-.303 5.426-.909 1.553-.606 2.756-1.449 3.608-2.528.852-1.08 1.278-2.32 1.278-3.722 0-1.307-.388-2.405-1.165-3.295-.757-.89-1.874-1.648-3.352-2.273-1.458-.625-3.248-1.193-5.369-1.704l-6.335-1.591c-4.906-1.194-8.779-3.059-11.62-5.597-2.841-2.538-4.252-5.956-4.233-10.256-.019-3.522.919-6.6 2.813-9.233 1.913-2.632 4.536-4.687 7.869-6.164 3.334-1.478 7.121-2.216 11.364-2.216 4.318 0 8.087.738 11.307 2.216 3.238 1.477 5.757 3.532 7.556 6.164 1.8 2.633 2.728 5.682 2.785 9.148h-11.79ZM239.916 391v-58.182h39.205v10.142h-26.904v13.864h24.887v10.142h-24.887v13.892h27.017V391h-39.318Zm46.769-48.04v-10.142h47.784v10.142h-17.813V391h-12.159v-48.04h-17.812Zm87.216 6.591c-.228-2.292-1.203-4.072-2.927-5.341-1.723-1.269-4.062-1.903-7.017-1.903-2.007 0-3.702.284-5.085.852-1.382.549-2.443 1.316-3.182 2.301-.719.985-1.079 2.102-1.079 3.352-.038 1.042.18 1.951.653 2.728.493.776 1.165 1.449 2.017 2.017.853.549 1.837 1.032 2.955 1.449 1.117.397 2.31.738 3.579 1.022l5.228 1.25c2.537.569 4.867 1.326 6.988 2.273 2.121.947 3.959 2.112 5.512 3.494a14.54 14.54 0 0 1 3.608 4.887c.871 1.875 1.316 4.024 1.335 6.449-.019 3.56-.928 6.647-2.727 9.261-1.781 2.595-4.357 4.612-7.728 6.051-3.352 1.421-7.396 2.131-12.13 2.131-4.697 0-8.788-.72-12.273-2.159-3.466-1.44-6.174-3.57-8.125-6.392-1.932-2.841-2.945-6.354-3.04-10.54h11.903c.133 1.951.692 3.579 1.677 4.886 1.003 1.288 2.339 2.264 4.005 2.926 1.686.644 3.589.966 5.711.966 2.083 0 3.892-.303 5.426-.909 1.553-.606 2.755-1.449 3.608-2.528.852-1.08 1.278-2.32 1.278-3.722 0-1.307-.388-2.405-1.165-3.295-.757-.89-1.875-1.648-3.352-2.273-1.458-.625-3.248-1.193-5.369-1.704l-6.336-1.591c-4.905-1.194-8.778-3.059-11.619-5.597-2.841-2.538-4.252-5.956-4.233-10.256-.019-3.522.919-6.6 2.813-9.233 1.913-2.632 4.536-4.687 7.869-6.164 3.333-1.478 7.121-2.216 11.364-2.216 4.318 0 8.087.738 11.306 2.216 3.239 1.477 5.758 3.532 7.557 6.164 1.799 2.633 2.728 5.682 2.784 9.148h-11.789Zm47.819 7.557v9.602h-26.534v-9.602h26.534Zm49.119-5.483c-.397-1.383-.956-2.604-1.676-3.665a10.344 10.344 0 0 0-2.642-2.727c-1.022-.758-2.197-1.335-3.522-1.733-1.307-.398-2.756-.597-4.347-.597-2.973 0-5.587.739-7.841 2.216-2.235 1.478-3.977 3.627-5.227 6.449-1.25 2.803-1.875 6.231-1.875 10.284 0 4.053.615 7.5 1.846 10.341 1.231 2.841 2.974 5.01 5.228 6.506 2.253 1.477 4.914 2.216 7.983 2.216 2.784 0 5.161-.493 7.13-1.477 1.989-1.004 3.504-2.415 4.546-4.233 1.06-1.819 1.591-3.968 1.591-6.449l2.5.369h-15v-9.261h24.346v7.329c0 5.114-1.079 9.508-3.238 13.182-2.159 3.655-5.133 6.477-8.921 8.466-3.788 1.97-8.125 2.954-13.011 2.954-5.455 0-10.246-1.202-14.375-3.607-4.129-2.425-7.349-5.862-9.659-10.313-2.292-4.47-3.438-9.773-3.438-15.909 0-4.716.682-8.921 2.046-12.614 1.382-3.712 3.314-6.856 5.795-9.432a25.037 25.037 0 0 1 8.665-5.88c3.295-1.345 6.865-2.017 10.71-2.017 3.296 0 6.364.483 9.205 1.449 2.841.947 5.36 2.291 7.556 4.034a21.848 21.848 0 0 1 5.427 6.221c1.401 2.387 2.301 5.019 2.698 7.898h-12.5ZM493.119 391v-58.182h39.205v10.142H505.42v13.864h24.887v10.142H505.42v13.892h27.018V391h-39.319Zm97.649-58.182V391h-10.625l-25.312-36.619h-.426V391h-12.301v-58.182h10.795l25.114 36.591h.511v-36.591h12.244ZM600.932 391v-58.182h39.204v10.142h-26.903v13.864h24.886v10.142h-24.886v13.892h27.017V391h-39.318Zm48.984 0v-58.182h22.955c4.394 0 8.144.786 11.25 2.358 3.125 1.553 5.502 3.76 7.13 6.619 1.648 2.841 2.472 6.184 2.472 10.029 0 3.863-.833 7.187-2.5 9.971-1.667 2.766-4.081 4.887-7.244 6.364-3.144 1.477-6.951 2.216-11.421 2.216h-15.369v-9.886h13.381c2.348 0 4.299-.322 5.852-.966 1.553-.644 2.708-1.61 3.466-2.898.776-1.288 1.165-2.888 1.165-4.801 0-1.932-.389-3.561-1.165-4.886-.758-1.326-1.923-2.33-3.495-3.012-1.553-.701-3.513-1.051-5.88-1.051h-8.296V391h-12.301Zm31.421-26.477L695.797 391h-13.58l-14.147-26.477h13.267ZM712.445 391h-13.182l20.085-58.182H735.2L755.257 391h-13.182l-14.574-44.886h-.454L712.445 391Zm-.824-22.869h31.136v9.602h-31.136v-9.602Zm41.314-25.171v-10.142h47.784v10.142h-17.813V391h-12.159v-48.04h-17.812Zm106.463 18.949c0 6.345-1.203 11.743-3.608 16.193-2.387 4.451-5.644 7.851-9.773 10.199-4.11 2.33-8.731 3.494-13.864 3.494-5.17 0-9.81-1.174-13.92-3.522-4.11-2.349-7.358-5.748-9.744-10.199-2.387-4.451-3.58-9.839-3.58-16.165 0-6.345 1.193-11.742 3.58-16.193 2.386-4.451 5.634-7.841 9.744-10.171 4.11-2.348 8.75-3.522 13.92-3.522 5.133 0 9.754 1.174 13.864 3.522 4.129 2.33 7.386 5.72 9.773 10.171 2.405 4.451 3.608 9.848 3.608 16.193Zm-12.472 0c0-4.11-.615-7.576-1.846-10.398-1.213-2.822-2.927-4.962-5.142-6.42-2.216-1.458-4.811-2.188-7.785-2.188-2.973 0-5.568.73-7.784 2.188-2.216 1.458-3.939 3.598-5.17 6.42-1.212 2.822-1.818 6.288-1.818 10.398 0 4.11.606 7.576 1.818 10.398 1.231 2.822 2.954 4.962 5.17 6.42 2.216 1.459 4.811 2.188 7.784 2.188 2.974 0 5.569-.729 7.785-2.188 2.215-1.458 3.929-3.598 5.142-6.42 1.231-2.822 1.846-6.288 1.846-10.398ZM868.51 391v-58.182h22.954c4.394 0 8.144.786 11.25 2.358 3.125 1.553 5.502 3.76 7.131 6.619 1.648 2.841 2.472 6.184 2.472 10.029 0 3.863-.834 7.187-2.5 9.971-1.667 2.766-4.082 4.887-7.245 6.364-3.143 1.477-6.95 2.216-11.42 2.216h-15.369v-9.886h13.38c2.349 0 4.3-.322 5.853-.966 1.553-.644 2.708-1.61 3.466-2.898.776-1.288 1.164-2.888 1.164-4.801 0-1.932-.388-3.561-1.164-4.886-.758-1.326-1.923-2.33-3.495-3.012-1.553-.701-3.513-1.051-5.88-1.051h-8.296V391H868.51Zm31.42-26.477L914.391 391h-13.58l-14.148-26.477h13.267Z"/><path fill="#424242" d="M92.568 462a9.24 9.24 0 0 0-1.112-2.314 7.15 7.15 0 0 0-1.624-1.764 6.796 6.796 0 0 0-2.122-1.112c-.792-.256-1.662-.384-2.608-.384-1.55 0-2.961.401-4.231 1.202-1.27.801-2.28 1.981-3.03 3.541-.75 1.56-1.125 3.473-1.125 5.74 0 2.267.38 4.18 1.138 5.74.758 1.56 1.785 2.74 3.08 3.541 1.296.801 2.754 1.202 4.373 1.202 1.5 0 2.82-.32 3.963-.959a6.79 6.79 0 0 0 2.684-2.736c.648-1.184.972-2.578.972-4.18l.972.205h-7.875v-2.813h9.971v2.813c0 2.156-.46 4.031-1.38 5.625a9.543 9.543 0 0 1-3.785 3.707c-1.602.869-3.443 1.304-5.522 1.304-2.318 0-4.355-.546-6.111-1.636-1.747-1.091-3.11-2.642-4.09-4.654-.972-2.011-1.458-4.398-1.458-7.159 0-2.071.277-3.933.83-5.587.563-1.661 1.356-3.076 2.379-4.244a10.418 10.418 0 0 1 3.63-2.685c1.398-.622 2.936-.933 4.615-.933 1.381 0 2.668.209 3.861.627 1.202.409 2.271.993 3.209 1.751a9.962 9.962 0 0 1 2.365 2.698A10.267 10.267 0 0 1 95.84 462h-3.273Zm16.68 18.409c-1.892 0-3.524-.418-4.896-1.253-1.364-.844-2.416-2.02-3.158-3.528-.733-1.517-1.099-3.281-1.099-5.293 0-2.011.366-3.784 1.099-5.318.742-1.543 1.773-2.744 3.094-3.605 1.33-.869 2.881-1.304 4.653-1.304 1.023 0 2.033.17 3.03.511a7.509 7.509 0 0 1 2.723 1.662c.818.759 1.47 1.764 1.956 3.017s.729 2.796.729 4.628v1.279h-15.136v-2.608h12.068c0-1.108-.222-2.097-.665-2.966a5.01 5.01 0 0 0-1.867-2.059c-.801-.502-1.747-.754-2.838-.754-1.201 0-2.241.298-3.119.895a5.89 5.89 0 0 0-2.007 2.301 6.756 6.756 0 0 0-.703 3.043v1.738c0 1.483.256 2.741.767 3.772.52 1.022 1.24 1.802 2.16 2.339.921.529 1.99.793 3.209.793.793 0 1.509-.111 2.148-.333a4.605 4.605 0 0 0 1.675-1.022 4.65 4.65 0 0 0 1.086-1.713l2.915.818a6.456 6.456 0 0 1-1.547 2.608c-.724.741-1.619 1.321-2.684 1.738-1.066.41-2.263.614-3.593.614Zm15.737-12.221V480h-3.017v-19.636h2.915v3.068h.256a5.616 5.616 0 0 1 2.096-2.404c.938-.613 2.148-.92 3.631-.92 1.33 0 2.493.273 3.49.818.997.537 1.773 1.355 2.327 2.455.554 1.091.831 2.471.831 4.142V480h-3.017v-12.273c0-1.542-.401-2.744-1.202-3.605-.801-.869-1.9-1.304-3.298-1.304-.963 0-1.824.209-2.583.627-.75.417-1.342 1.027-1.777 1.828-.434.801-.652 1.772-.652 2.915Zm26.275 12.221c-1.892 0-3.524-.418-4.896-1.253-1.364-.844-2.417-2.02-3.158-3.528-.733-1.517-1.099-3.281-1.099-5.293 0-2.011.366-3.784 1.099-5.318.741-1.543 1.773-2.744 3.094-3.605 1.329-.869 2.88-1.304 4.653-1.304 1.023 0 2.033.17 3.03.511a7.509 7.509 0 0 1 2.723 1.662c.818.759 1.47 1.764 1.956 3.017s.729 2.796.729 4.628v1.279h-15.137v-2.608h12.068c0-1.108-.221-2.097-.664-2.966a5.01 5.01 0 0 0-1.867-2.059c-.801-.502-1.747-.754-2.838-.754-1.202 0-2.241.298-3.119.895a5.874 5.874 0 0 0-2.007 2.301 6.756 6.756 0 0 0-.703 3.043v1.738c0 1.483.255 2.741.767 3.772.52 1.022 1.24 1.802 2.16 2.339.921.529 1.99.793 3.209.793.793 0 1.508-.111 2.148-.333a4.6 4.6 0 0 0 1.674-1.022c.469-.46.831-1.032 1.087-1.713l2.915.818a6.468 6.468 0 0 1-1.547 2.608c-.724.741-1.619 1.321-2.685 1.738-1.065.41-2.263.614-3.592.614Zm12.72-.409v-19.636h2.915v2.966h.204c.358-.972 1.006-1.76 1.944-2.366.937-.605 1.994-.907 3.17-.907.222 0 .499.004.831.013.332.008.584.021.754.038v3.068a9.11 9.11 0 0 0-.703-.115 6.883 6.883 0 0 0-1.138-.089c-.954 0-1.806.2-2.556.6a4.534 4.534 0 0 0-1.765 1.637c-.426.69-.639 1.478-.639 2.365V480h-3.017Zm19.173.46c-1.244 0-2.374-.234-3.388-.703-1.014-.477-1.819-1.163-2.416-2.058-.597-.904-.895-1.994-.895-3.273 0-1.125.222-2.037.665-2.736a4.694 4.694 0 0 1 1.777-1.662c.741-.4 1.56-.698 2.454-.894a29.668 29.668 0 0 1 2.724-.486c1.193-.154 2.16-.269 2.901-.345.75-.086 1.296-.226 1.637-.422.349-.196.524-.537.524-1.023v-.102c0-1.262-.345-2.242-1.036-2.941-.681-.699-1.717-1.048-3.106-1.048-1.44 0-2.57.315-3.388.946-.818.631-1.393 1.304-1.726 2.02l-2.863-1.023c.511-1.193 1.193-2.122 2.045-2.787a7.664 7.664 0 0 1 2.813-1.406 11.659 11.659 0 0 1 3.017-.409c.63 0 1.355.077 2.173.23a6.962 6.962 0 0 1 2.391.908c.775.46 1.419 1.155 1.93 2.084.511.929.767 2.173.767 3.732V480h-3.017v-2.659h-.153c-.205.426-.546.882-1.023 1.368-.477.486-1.112.899-1.905 1.24-.793.341-1.76.511-2.902.511Zm.46-2.71c1.193 0 2.199-.234 3.017-.703.827-.469 1.449-1.074 1.867-1.815a4.631 4.631 0 0 0 .639-2.34v-2.761c-.128.153-.409.294-.844.422-.426.119-.92.225-1.483.319a67.93 67.93 0 0 1-1.623.23c-.52.06-.942.111-1.266.154a11.52 11.52 0 0 0-2.199.498c-.673.222-1.219.558-1.636 1.01-.409.443-.614 1.048-.614 1.816 0 1.048.388 1.84 1.164 2.377.784.529 1.777.793 2.978.793Zm22.587-17.386v2.556h-10.177v-2.556H206.2Zm-7.211-4.705h3.017v18.716c0 .852.124 1.491.371 1.918.256.417.58.698.972.843.4.137.822.205 1.265.205.333 0 .605-.017.819-.051l.511-.102.614 2.71a6.334 6.334 0 0 1-.857.23c-.366.085-.831.128-1.393.128a6.079 6.079 0 0 1-2.506-.55 4.98 4.98 0 0 1-2.02-1.675c-.528-.75-.793-1.696-.793-2.838v-19.534Zm19.771 24.75c-1.892 0-3.524-.418-4.896-1.253-1.364-.844-2.417-2.02-3.158-3.528-.733-1.517-1.099-3.281-1.099-5.293 0-2.011.366-3.784 1.099-5.318.741-1.543 1.773-2.744 3.094-3.605 1.329-.869 2.88-1.304 4.653-1.304 1.023 0 2.033.17 3.03.511a7.509 7.509 0 0 1 2.723 1.662c.818.759 1.47 1.764 1.956 3.017s.729 2.796.729 4.628v1.279h-15.137v-2.608h12.068c0-1.108-.221-2.097-.664-2.966a5.01 5.01 0 0 0-1.867-2.059c-.801-.502-1.747-.754-2.838-.754-1.202 0-2.241.298-3.119.895a5.874 5.874 0 0 0-2.007 2.301 6.756 6.756 0 0 0-.703 3.043v1.738c0 1.483.255 2.741.767 3.772.52 1.022 1.24 1.802 2.16 2.339.921.529 1.99.793 3.209.793.793 0 1.508-.111 2.148-.333a4.6 4.6 0 0 0 1.674-1.022c.469-.46.831-1.032 1.087-1.713l2.915.818a6.468 6.468 0 0 1-1.547 2.608c-.724.741-1.619 1.321-2.685 1.738-1.065.41-2.263.614-3.592.614Zm28.624.051c-1.245 0-2.374-.234-3.388-.703-1.014-.477-1.82-1.163-2.416-2.058-.597-.904-.895-1.994-.895-3.273 0-1.125.221-2.037.664-2.736a4.708 4.708 0 0 1 1.777-1.662c.742-.4 1.56-.698 2.455-.894a29.587 29.587 0 0 1 2.723-.486c1.193-.154 2.16-.269 2.902-.345.75-.086 1.295-.226 1.636-.422.35-.196.524-.537.524-1.023v-.102c0-1.262-.345-2.242-1.035-2.941-.682-.699-1.717-1.048-3.107-1.048-1.44 0-2.569.315-3.387.946-.819.631-1.394 1.304-1.726 2.02l-2.864-1.023c.512-1.193 1.193-2.122 2.046-2.787a7.66 7.66 0 0 1 2.812-1.406 11.67 11.67 0 0 1 3.017-.409c.631 0 1.355.077 2.173.23a6.962 6.962 0 0 1 2.391.908c.776.46 1.419 1.155 1.93 2.084.512.929.768 2.173.768 3.732V480h-3.018v-2.659h-.153c-.204.426-.545.882-1.023 1.368-.477.486-1.112.899-1.904 1.24-.793.341-1.76.511-2.902.511Zm.46-2.71c1.193 0 2.199-.234 3.017-.703.827-.469 1.449-1.074 1.866-1.815a4.631 4.631 0 0 0 .639-2.34v-2.761c-.127.153-.409.294-.843.422-.426.119-.921.225-1.483.319-.554.085-1.095.162-1.624.23-.52.06-.942.111-1.265.154-.785.102-1.517.268-2.199.498-.674.222-1.219.558-1.637 1.01-.409.443-.613 1.048-.613 1.816 0 1.048.387 1.84 1.163 2.377.784.529 1.777.793 2.979.793Zm17.063-23.932V480h-3.017v-26.182h3.017Zm8.543 0V480h-3.017v-26.182h3.017ZM289.51 480v-26.182h3.171v11.659h13.96v-11.659h3.17V480h-3.17v-11.71h-13.96V480h-3.171Zm25.217-23.369v-2.813h19.636v2.813h-8.233V480h-3.17v-23.369h-8.233Zm24.529-2.813h3.784l8.898 21.733h.307l8.898-21.733h3.784V480h-2.966v-19.892h-.256L353.523 480h-2.863l-8.182-19.892h-.256V480h-2.966v-26.182ZM371.284 480v-26.182h3.17v23.37h12.171V480h-15.341Zm29.966 0v-19.636h2.914v3.068h.256c.409-1.048 1.07-1.862 1.982-2.442.912-.588 2.007-.882 3.285-.882 1.296 0 2.374.294 3.235.882.869.58 1.546 1.394 2.032 2.442h.205a5.717 5.717 0 0 1 2.263-2.416c1.005-.605 2.211-.908 3.617-.908 1.756 0 3.192.55 4.309 1.649 1.116 1.091 1.674 2.791 1.674 5.101V480h-3.017v-13.142c0-1.449-.396-2.484-1.189-3.107-.792-.622-1.725-.933-2.799-.933-1.381 0-2.451.418-3.209 1.253-.759.827-1.138 1.875-1.138 3.145V480h-3.068v-13.449c0-1.116-.362-2.015-1.087-2.697-.724-.691-1.657-1.036-2.799-1.036-.785 0-1.517.209-2.199.627-.674.417-1.219.997-1.637 1.738-.409.733-.613 1.581-.613 2.544V480h-3.017Zm39.522.409c-1.892 0-3.524-.418-4.897-1.253-1.363-.844-2.416-2.02-3.157-3.528-.733-1.517-1.1-3.281-1.1-5.293 0-2.011.367-3.784 1.1-5.318.741-1.543 1.772-2.744 3.093-3.605 1.33-.869 2.881-1.304 4.654-1.304 1.023 0 2.033.17 3.03.511a7.509 7.509 0 0 1 2.723 1.662c.818.759 1.47 1.764 1.956 3.017.485 1.253.728 2.796.728 4.628v1.279h-15.136v-2.608h12.068c0-1.108-.221-2.097-.665-2.966a5 5 0 0 0-1.866-2.059c-.801-.502-1.747-.754-2.838-.754-1.202 0-2.242.298-3.119.895a5.885 5.885 0 0 0-2.008 2.301 6.77 6.77 0 0 0-.703 3.043v1.738c0 1.483.256 2.741.767 3.772.52 1.022 1.24 1.802 2.161 2.339.92.529 1.99.793 3.209.793.792 0 1.508-.111 2.147-.333a4.605 4.605 0 0 0 1.675-1.022c.469-.46.831-1.032 1.087-1.713l2.915.818a6.468 6.468 0 0 1-1.547 2.608c-.725.741-1.62 1.321-2.685 1.738-1.065.41-2.263.614-3.592.614Zm21.26-20.045v2.556h-10.177v-2.556h10.177Zm-7.211-4.705h3.017v18.716c0 .852.124 1.491.371 1.918.256.417.58.698.972.843.4.137.822.205 1.265.205.333 0 .605-.017.819-.051l.511-.102.614 2.71c-.205.076-.49.153-.857.23-.366.085-.831.128-1.393.128a6.079 6.079 0 0 1-2.506-.55 4.98 4.98 0 0 1-2.02-1.675c-.528-.75-.793-1.696-.793-2.838v-19.534Zm17.527 24.801c-1.244 0-2.373-.234-3.387-.703-1.015-.477-1.82-1.163-2.417-2.058-.596-.904-.894-1.994-.894-3.273 0-1.125.221-2.037.664-2.736a4.7 4.7 0 0 1 1.777-1.662c.742-.4 1.56-.698 2.455-.894a29.587 29.587 0 0 1 2.723-.486c1.193-.154 2.16-.269 2.902-.345.75-.086 1.295-.226 1.636-.422.35-.196.524-.537.524-1.023v-.102c0-1.262-.345-2.242-1.035-2.941-.682-.699-1.718-1.048-3.107-1.048-1.44 0-2.569.315-3.388.946-.818.631-1.393 1.304-1.725 2.02l-2.864-1.023c.511-1.193 1.193-2.122 2.045-2.787a7.672 7.672 0 0 1 2.813-1.406 11.664 11.664 0 0 1 3.017-.409c.631 0 1.355.077 2.173.23a6.962 6.962 0 0 1 2.391.908c.775.46 1.419 1.155 1.93 2.084.512.929.767 2.173.767 3.732V480h-3.017v-2.659h-.153c-.205.426-.546.882-1.023 1.368-.477.486-1.112.899-1.905 1.24-.792.341-1.76.511-2.902.511Zm.461-2.71c1.193 0 2.198-.234 3.017-.703.826-.469 1.449-1.074 1.866-1.815a4.631 4.631 0 0 0 .639-2.34v-2.761c-.128.153-.409.294-.843.422-.427.119-.921.225-1.483.319-.554.085-1.096.162-1.624.23-.52.06-.942.111-1.266.154-.784.102-1.517.268-2.198.498-.674.222-1.219.558-1.637 1.01-.409.443-.613 1.048-.613 1.816 0 1.048.387 1.84 1.163 2.377.784.529 1.777.793 2.979.793Zm32.711-17.386v2.556h-10.176v-2.556h10.176Zm-7.21-4.705h3.017v18.716c0 .852.123 1.491.37 1.918.256.417.58.698.972.843.401.137.822.205 1.266.205.332 0 .605-.017.818-.051l.511-.102.614 2.71c-.205.076-.49.153-.857.23-.366.085-.831.128-1.393.128a6.082 6.082 0 0 1-2.506-.55 4.987 4.987 0 0 1-2.02-1.675c-.528-.75-.792-1.696-.792-2.838v-19.534Zm17.527 24.801c-1.245 0-2.374-.234-3.388-.703-1.014-.477-1.82-1.163-2.416-2.058-.597-.904-.895-1.994-.895-3.273 0-1.125.221-2.037.665-2.736a4.694 4.694 0 0 1 1.777-1.662 9.345 9.345 0 0 1 2.454-.894 29.647 29.647 0 0 1 2.723-.486c1.193-.154 2.161-.269 2.902-.345.75-.086 1.296-.226 1.636-.422.35-.196.525-.537.525-1.023v-.102c0-1.262-.346-2.242-1.036-2.941-.682-.699-1.717-1.048-3.106-1.048-1.441 0-2.57.315-3.388.946-.818.631-1.394 1.304-1.726 2.02l-2.864-1.023c.512-1.193 1.193-2.122 2.046-2.787a7.668 7.668 0 0 1 2.812-1.406 11.67 11.67 0 0 1 3.017-.409c.631 0 1.355.077 2.174.23a6.965 6.965 0 0 1 2.39.908c.776.46 1.419 1.155 1.931 2.084.511.929.767 2.173.767 3.732V480h-3.017v-2.659h-.154c-.204.426-.545.882-1.023 1.368-.477.486-1.112.899-1.904 1.24-.793.341-1.76.511-2.902.511Zm.46-2.71c1.193 0 2.199-.234 3.017-.703.827-.469 1.449-1.074 1.866-1.815.427-.742.64-1.522.64-2.34v-2.761c-.128.153-.409.294-.844.422-.426.119-.921.225-1.483.319-.554.085-1.095.162-1.624.23-.52.06-.941.111-1.265.154a11.52 11.52 0 0 0-2.199.498c-.673.222-1.219.558-1.637 1.01-.409.443-.613 1.048-.613 1.816 0 1.048.388 1.84 1.163 2.377.784.529 1.777.793 2.979.793Zm21.973 10.023c-1.458 0-2.711-.188-3.759-.563-1.048-.366-1.922-.852-2.621-1.457-.69-.597-1.24-1.236-1.649-1.918l2.404-1.687c.272.358.617.767 1.035 1.227.418.469.989.874 1.713 1.214.733.35 1.692.525 2.877.525 1.585 0 2.893-.384 3.924-1.151 1.031-.767 1.547-1.969 1.547-3.605v-3.989h-.256c-.221.358-.536.801-.946 1.33-.4.52-.98.984-1.738 1.393-.75.401-1.764.601-3.043.601-1.585 0-3.008-.375-4.27-1.125-1.253-.75-2.245-1.841-2.978-3.273-.725-1.431-1.087-3.17-1.087-5.215 0-2.012.354-3.763 1.061-5.255.707-1.5 1.692-2.659 2.953-3.477 1.262-.827 2.719-1.24 4.372-1.24 1.279 0 2.293.213 3.043.639.758.418 1.338.895 1.739 1.432.409.528.724.963.946 1.304h.306v-3.119h2.915v20.198c0 1.688-.383 3.06-1.15 4.117-.759 1.065-1.782 1.845-3.069 2.339-1.278.503-2.701.755-4.269.755Zm-.103-10.79c1.21 0 2.233-.277 3.068-.831.836-.554 1.471-1.351 1.905-2.391.435-1.039.652-2.284.652-3.733 0-1.414-.213-2.663-.639-3.745-.426-1.083-1.057-1.931-1.892-2.544-.835-.614-1.866-.921-3.094-.921-1.278 0-2.343.324-3.196.972-.844.647-1.478 1.517-1.905 2.608-.417 1.091-.626 2.301-.626 3.63 0 1.364.213 2.57.639 3.618.435 1.04 1.074 1.858 1.918 2.455.852.588 1.909.882 3.17.882Zm28.023-12.222-2.71.767a5.04 5.04 0 0 0-.755-1.316c-.323-.435-.767-.793-1.329-1.074-.563-.281-1.283-.422-2.161-.422-1.201 0-2.203.277-3.004.831-.792.545-1.189 1.24-1.189 2.084 0 .75.273 1.342.818 1.777.546.434 1.398.797 2.557 1.086l2.915.716c1.756.426 3.064 1.078 3.925 1.956.861.87 1.291 1.99 1.291 3.362 0 1.125-.324 2.131-.972 3.017-.639.887-1.534 1.586-2.684 2.097-1.151.511-2.489.767-4.015.767-2.002 0-3.66-.435-4.973-1.304-1.312-.869-2.143-2.139-2.492-3.81l2.863-.715c.273 1.056.789 1.849 1.547 2.377.767.529 1.769.793 3.004.793 1.407 0 2.523-.298 3.35-.895.835-.605 1.253-1.329 1.253-2.173 0-.682-.239-1.253-.716-1.713-.478-.469-1.211-.818-2.199-1.049l-3.273-.767c-1.798-.426-3.119-1.086-3.963-1.981-.835-.904-1.253-2.033-1.253-3.388 0-1.108.311-2.088.933-2.94.631-.853 1.488-1.522 2.57-2.007 1.091-.486 2.327-.729 3.707-.729 1.944 0 3.469.426 4.577 1.278 1.117.853 1.909 1.978 2.378 3.375Zm9.399 11.659-.204 1.381a27.934 27.934 0 0 1-.665 3.119 58.764 58.764 0 0 1-.908 3.133c-.315.98-.575 1.76-.779 2.339h-2.301l.434-2.16c.179-.895.358-1.897.537-3.005.188-1.099.341-2.224.46-3.375l.154-1.432h3.272Zm24.46-16.056v2.556h-10.586v-2.556h10.586ZM592.634 480v-22.347c0-1.125.264-2.062.792-2.812a4.917 4.917 0 0 1 2.059-1.688 6.502 6.502 0 0 1 2.672-.562c.741 0 1.346.06 1.815.179.469.119.818.23 1.048.332l-.869 2.608a15.588 15.588 0 0 0-.639-.192c-.264-.076-.614-.115-1.049-.115-.997 0-1.717.252-2.16.755-.435.503-.652 1.24-.652 2.211V480h-3.017Zm16.859.46c-1.244 0-2.374-.234-3.388-.703-1.014-.477-1.819-1.163-2.416-2.058-.597-.904-.895-1.994-.895-3.273 0-1.125.222-2.037.665-2.736a4.694 4.694 0 0 1 1.777-1.662 9.345 9.345 0 0 1 2.454-.894 29.647 29.647 0 0 1 2.723-.486 117.09 117.09 0 0 1 2.902-.345c.75-.086 1.296-.226 1.637-.422.349-.196.524-.537.524-1.023v-.102c0-1.262-.345-2.242-1.036-2.941-.681-.699-1.717-1.048-3.106-1.048-1.441 0-2.57.315-3.388.946-.818.631-1.393 1.304-1.726 2.02l-2.863-1.023c.511-1.193 1.193-2.122 2.045-2.787a7.668 7.668 0 0 1 2.812-1.406 11.672 11.672 0 0 1 3.018-.409c.63 0 1.355.077 2.173.23a6.957 6.957 0 0 1 2.39.908c.776.46 1.419 1.155 1.931 2.084.511.929.767 2.173.767 3.732V480h-3.017v-2.659h-.154c-.204.426-.545.882-1.022 1.368-.478.486-1.112.899-1.905 1.24-.793.341-1.76.511-2.902.511Zm.46-2.71c1.193 0 2.199-.234 3.017-.703.827-.469 1.449-1.074 1.867-1.815a4.631 4.631 0 0 0 .639-2.34v-2.761c-.128.153-.409.294-.844.422-.426.119-.92.225-1.483.319a67.93 67.93 0 0 1-1.623.23c-.52.06-.942.111-1.266.154a11.52 11.52 0 0 0-2.199.498c-.673.222-1.219.558-1.636 1.01-.409.443-.614 1.048-.614 1.816 0 1.048.388 1.84 1.163 2.377.785.529 1.777.793 2.979.793Zm29.4-17.386L632.092 480h-3.068l-7.262-19.636h3.273l5.421 15.647h.204l5.421-15.647h3.272ZM643.336 480v-19.636h3.017V480h-3.017Zm1.534-22.909c-.588 0-1.095-.2-1.522-.601a1.933 1.933 0 0 1-.626-1.445c0-.562.209-1.044.626-1.444a2.147 2.147 0 0 1 1.522-.601c.588 0 1.091.2 1.508.601.426.4.639.882.639 1.444 0 .563-.213 1.044-.639 1.445-.417.401-.92.601-1.508.601Zm14.986 23.318c-1.841 0-3.426-.435-4.756-1.304-1.329-.869-2.352-2.067-3.068-3.592-.716-1.526-1.074-3.269-1.074-5.229 0-1.994.367-3.754 1.1-5.28.741-1.534 1.772-2.731 3.093-3.592 1.33-.869 2.881-1.304 4.654-1.304 1.38 0 2.625.256 3.733.767s2.015 1.227 2.723 2.148c.707.92 1.146 1.994 1.316 3.221h-3.017c-.23-.895-.741-1.687-1.534-2.378-.784-.698-1.841-1.048-3.17-1.048-1.176 0-2.208.307-3.094.921-.878.605-1.564 1.461-2.058 2.569-.486 1.1-.729 2.391-.729 3.874 0 1.517.239 2.838.716 3.963.486 1.125 1.168 1.998 2.046 2.621.886.622 1.926.933 3.119.933.784 0 1.496-.137 2.135-.409a4.409 4.409 0 0 0 1.623-1.176 4.495 4.495 0 0 0 .946-1.841h3.017a6.987 6.987 0 0 1-1.265 3.132c-.665.92-1.547 1.653-2.647 2.199-1.09.537-2.36.805-3.809.805Zm20.109 0c-1.773 0-3.328-.422-4.666-1.266-1.33-.843-2.369-2.024-3.119-3.541-.742-1.517-1.113-3.29-1.113-5.318 0-2.045.371-3.831 1.113-5.356.75-1.526 1.789-2.711 3.119-3.554 1.338-.844 2.893-1.266 4.666-1.266 1.773 0 3.324.422 4.654 1.266 1.338.843 2.377 2.028 3.119 3.554.75 1.525 1.125 3.311 1.125 5.356 0 2.028-.375 3.801-1.125 5.318-.742 1.517-1.781 2.698-3.119 3.541-1.33.844-2.881 1.266-4.654 1.266Zm0-2.71c1.347 0 2.455-.345 3.324-1.036.869-.69 1.513-1.598 1.93-2.723.418-1.125.627-2.343.627-3.656 0-1.312-.209-2.535-.627-3.669-.417-1.133-1.061-2.05-1.93-2.749-.869-.698-1.977-1.048-3.324-1.048-1.346 0-2.454.35-3.324 1.048-.869.699-1.512 1.616-1.93 2.749-.418 1.134-.626 2.357-.626 3.669 0 1.313.208 2.531.626 3.656.418 1.125 1.061 2.033 1.93 2.723.87.691 1.978 1.036 3.324 1.036Zm16.52-9.511V480h-3.017v-19.636h2.915v3.068h.256a5.616 5.616 0 0 1 2.096-2.404c.938-.613 2.148-.92 3.631-.92 1.33 0 2.493.273 3.49.818.997.537 1.773 1.355 2.327 2.455.554 1.091.831 2.471.831 4.142V480h-3.017v-12.273c0-1.542-.401-2.744-1.202-3.605-.801-.869-1.9-1.304-3.298-1.304-.963 0-1.824.209-2.583.627-.75.417-1.342 1.027-1.777 1.828-.434.801-.652 1.772-.652 2.915ZM725.061 480v-26.182h3.017v9.665h.256c.221-.341.528-.776.92-1.304.401-.537.972-1.014 1.713-1.432.75-.426 1.765-.639 3.043-.639 1.653 0 3.111.413 4.372 1.24 1.261.827 2.246 1.999 2.953 3.516.708 1.517 1.061 3.306 1.061 5.369 0 2.079-.353 3.882-1.061 5.408-.707 1.517-1.687 2.693-2.94 3.528-1.253.827-2.698 1.24-4.334 1.24-1.261 0-2.271-.209-3.03-.626-.758-.426-1.342-.908-1.751-1.445a19.065 19.065 0 0 1-.946-1.355h-.358V480h-2.915Zm2.966-9.818c0 1.483.217 2.791.652 3.925.435 1.125 1.07 2.007 1.905 2.646.835.631 1.858.946 3.068.946 1.261 0 2.314-.333 3.158-.997.852-.674 1.491-1.577 1.917-2.711.435-1.142.652-2.411.652-3.809 0-1.381-.213-2.625-.639-3.733-.418-1.117-1.052-1.999-1.905-2.646-.844-.657-1.905-.985-3.183-.985-1.227 0-2.259.311-3.094.933-.835.614-1.466 1.475-1.892 2.583-.426 1.099-.639 2.382-.639 3.848Zm31.359 1.79v-11.608h3.017V480h-3.017v-3.324h-.204c-.46.997-1.176 1.845-2.148 2.544-.971.691-2.199 1.036-3.682 1.036-1.227 0-2.318-.269-3.272-.806-.955-.545-1.705-1.363-2.25-2.454-.546-1.1-.819-2.485-.819-4.155v-12.477h3.017v12.272c0 1.432.401 2.574 1.202 3.426.81.853 1.841 1.279 3.094 1.279.75 0 1.513-.192 2.288-.575.784-.384 1.441-.972 1.969-1.765.537-.792.805-1.802.805-3.029Zm11.56-3.784V480h-3.017v-19.636h2.915v3.068h.256a5.616 5.616 0 0 1 2.096-2.404c.938-.613 2.148-.92 3.631-.92 1.33 0 2.493.273 3.49.818.997.537 1.773 1.355 2.327 2.455.554 1.091.831 2.471.831 4.142V480h-3.017v-12.273c0-1.542-.401-2.744-1.202-3.605-.801-.869-1.901-1.304-3.298-1.304-.963 0-1.824.209-2.583.627-.75.417-1.342 1.027-1.777 1.828-.434.801-.652 1.772-.652 2.915Zm25.457 12.221c-1.637 0-3.081-.413-4.334-1.24-1.253-.835-2.233-2.011-2.94-3.528-.708-1.526-1.062-3.329-1.062-5.408 0-2.063.354-3.852 1.062-5.369.707-1.517 1.691-2.689 2.953-3.516 1.261-.827 2.718-1.24 4.372-1.24 1.278 0 2.288.213 3.03.639.75.418 1.321.895 1.713 1.432.4.528.711.963.933 1.304h.256v-9.665h3.017V480h-2.915v-3.017h-.358c-.222.358-.537.81-.946 1.355-.409.537-.993 1.019-1.751 1.445-.759.417-1.769.626-3.03.626Zm.409-2.71c1.21 0 2.233-.315 3.068-.946.835-.639 1.47-1.521 1.905-2.646.434-1.134.652-2.442.652-3.925 0-1.466-.213-2.749-.639-3.848-.427-1.108-1.057-1.969-1.892-2.583-.836-.622-1.867-.933-3.094-.933-1.279 0-2.344.328-3.196.985-.844.647-1.479 1.529-1.905 2.646-.418 1.108-.626 2.352-.626 3.733 0 1.398.213 2.667.639 3.809.434 1.134 1.074 2.037 1.917 2.711.853.664 1.909.997 3.171.997Zm17.552-23.881V480h-3.017v-26.182h3.017Zm13.759 26.591c-1.892 0-3.524-.418-4.896-1.253-1.364-.844-2.416-2.02-3.158-3.528-.733-1.517-1.099-3.281-1.099-5.293 0-2.011.366-3.784 1.099-5.318.742-1.543 1.773-2.744 3.094-3.605 1.33-.869 2.881-1.304 4.653-1.304 1.023 0 2.033.17 3.03.511a7.509 7.509 0 0 1 2.723 1.662c.818.759 1.47 1.764 1.956 3.017s.729 2.796.729 4.628v1.279h-15.136v-2.608h12.068c0-1.108-.222-2.097-.665-2.966a5.01 5.01 0 0 0-1.867-2.059c-.801-.502-1.747-.754-2.838-.754-1.201 0-2.241.298-3.119.895a5.89 5.89 0 0 0-2.007 2.301 6.756 6.756 0 0 0-.703 3.043v1.738c0 1.483.256 2.741.767 3.772.52 1.022 1.24 1.802 2.16 2.339.921.529 1.99.793 3.209.793.793 0 1.509-.111 2.148-.333a4.605 4.605 0 0 0 1.675-1.022 4.65 4.65 0 0 0 1.086-1.713l2.915.818a6.456 6.456 0 0 1-1.547 2.608c-.724.741-1.619 1.321-2.684 1.738-1.066.41-2.263.614-3.593.614ZM80.04 524.46c-1.245 0-2.374-.234-3.388-.703-1.014-.477-1.82-1.163-2.416-2.058-.597-.904-.895-1.994-.895-3.273 0-1.125.222-2.037.665-2.736a4.699 4.699 0 0 1 1.777-1.662c.741-.4 1.56-.698 2.454-.894a29.617 29.617 0 0 1 2.723-.486c1.193-.154 2.16-.269 2.902-.345.75-.086 1.296-.226 1.637-.422.349-.196.524-.537.524-1.023v-.102c0-1.262-.345-2.242-1.036-2.941-.682-.699-1.717-1.048-3.106-1.048-1.44 0-2.57.315-3.388.946-.818.631-1.394 1.304-1.726 2.02l-2.864-1.023c.512-1.193 1.194-2.122 2.046-2.787a7.667 7.667 0 0 1 2.812-1.406 11.665 11.665 0 0 1 3.017-.409c.631 0 1.355.077 2.174.23a6.963 6.963 0 0 1 2.39.908c.776.46 1.42 1.155 1.93 2.084.512.929.768 2.173.768 3.732V524h-3.017v-2.659h-.154c-.204.426-.545.882-1.022 1.368-.478.486-1.113.899-1.905 1.24-.793.341-1.76.511-2.902.511Zm.46-2.71c1.193 0 2.199-.234 3.017-.703.827-.469 1.449-1.074 1.867-1.815a4.63 4.63 0 0 0 .639-2.34v-2.761c-.128.153-.41.294-.844.422-.426.119-.92.225-1.483.319-.554.085-1.095.162-1.624.23-.52.06-.941.111-1.265.154a11.52 11.52 0 0 0-2.199.498c-.673.222-1.219.558-1.636 1.01-.41.443-.614 1.048-.614 1.816 0 1.048.388 1.84 1.163 2.377.784.529 1.777.793 2.979.793Zm17.064-9.562V524h-3.017v-19.636h2.914v3.068h.256a5.615 5.615 0 0 1 2.097-2.404c.937-.613 2.147-.92 3.63-.92 1.33 0 2.493.273 3.49.818.997.537 1.773 1.355 2.327 2.455.554 1.091.831 2.471.831 4.142V524h-3.017v-12.273c0-1.542-.401-2.744-1.202-3.605-.801-.869-1.9-1.304-3.298-1.304-.963 0-1.824.209-2.582.627-.75.417-1.343 1.027-1.777 1.828-.435.801-.652 1.772-.652 2.915Zm25.456 12.221c-1.636 0-3.081-.413-4.334-1.24-1.253-.835-2.233-2.011-2.94-3.528-.708-1.526-1.061-3.329-1.061-5.408 0-2.063.353-3.852 1.061-5.369.707-1.517 1.692-2.689 2.953-3.516s2.719-1.24 4.372-1.24c1.278 0 2.288.213 3.03.639.75.418 1.321.895 1.713 1.432.4.528.712.963.933 1.304h.256v-9.665h3.017V524h-2.915v-3.017h-.358c-.221.358-.537.81-.946 1.355-.409.537-.993 1.019-1.751 1.445-.759.417-1.769.626-3.03.626Zm.409-2.71c1.21 0 2.233-.315 3.068-.946.835-.639 1.47-1.521 1.905-2.646.435-1.134.652-2.442.652-3.925 0-1.466-.213-2.749-.639-3.848-.426-1.108-1.057-1.969-1.892-2.583-.835-.622-1.867-.933-3.094-.933-1.278 0-2.344.328-3.196.985-.844.647-1.479 1.529-1.905 2.646-.417 1.108-.626 2.352-.626 3.733 0 1.398.213 2.667.639 3.809.435 1.134 1.074 2.037 1.918 2.711.852.664 1.909.997 3.17.997Zm32.638 2.71c-1.773 0-3.328-.422-4.666-1.266-1.33-.843-2.37-2.024-3.12-3.541-.741-1.517-1.112-3.29-1.112-5.318 0-2.045.371-3.831 1.112-5.356.75-1.526 1.79-2.711 3.12-3.554 1.338-.844 2.893-1.266 4.666-1.266 1.772 0 3.324.422 4.653 1.266 1.338.843 2.378 2.028 3.119 3.554.75 1.525 1.125 3.311 1.125 5.356 0 2.028-.375 3.801-1.125 5.318-.741 1.517-1.781 2.698-3.119 3.541-1.329.844-2.881 1.266-4.653 1.266Zm0-2.71c1.346 0 2.454-.345 3.324-1.036.869-.69 1.512-1.598 1.93-2.723.418-1.125.626-2.343.626-3.656 0-1.312-.208-2.535-.626-3.669-.418-1.133-1.061-2.05-1.93-2.749-.87-.698-1.978-1.048-3.324-1.048-1.347 0-2.455.35-3.324 1.048-.869.699-1.513 1.616-1.931 2.749-.417 1.134-.626 2.357-.626 3.669 0 1.313.209 2.531.626 3.656.418 1.125 1.062 2.033 1.931 2.723.869.691 1.977 1.036 3.324 1.036Zm22.043-17.335v2.556h-10.176v-2.556h10.176Zm-7.21-4.705h3.017v18.716c0 .852.123 1.491.37 1.918.256.417.58.698.972.843.4.137.822.205 1.266.205.332 0 .605-.017.818-.051l.511-.102.614 2.71c-.205.076-.49.153-.857.23-.366.085-.831.128-1.393.128a6.079 6.079 0 0 1-2.506-.55 4.98 4.98 0 0 1-2.02-1.675c-.528-.75-.792-1.696-.792-2.838v-19.534Zm15.187 12.529V524h-3.017v-26.182h3.017v9.614h.256a5.543 5.543 0 0 1 2.071-2.416c.929-.605 2.164-.908 3.707-.908 1.338 0 2.51.268 3.516.805 1.005.529 1.785 1.343 2.339 2.442.563 1.091.844 2.48.844 4.168V524h-3.017v-12.273c0-1.559-.405-2.765-1.215-3.618-.801-.86-1.913-1.291-3.336-1.291-.989 0-1.875.209-2.659.627a4.567 4.567 0 0 0-1.841 1.828c-.443.801-.665 1.772-.665 2.915Zm26.485 12.221c-1.892 0-3.524-.418-4.896-1.253-1.364-.844-2.416-2.02-3.158-3.528-.732-1.517-1.099-3.281-1.099-5.293 0-2.011.367-3.784 1.099-5.318.742-1.543 1.773-2.744 3.094-3.605 1.33-.869 2.881-1.304 4.654-1.304 1.022 0 2.032.17 3.029.511a7.5 7.5 0 0 1 2.723 1.662c.819.759 1.471 1.764 1.956 3.017.486 1.253.729 2.796.729 4.628v1.279h-15.136v-2.608h12.068c0-1.108-.222-2.097-.665-2.966a5.007 5.007 0 0 0-1.866-2.059c-.801-.502-1.747-.754-2.838-.754-1.202 0-2.242.298-3.12.895a5.89 5.89 0 0 0-2.007 2.301 6.756 6.756 0 0 0-.703 3.043v1.738c0 1.483.256 2.741.767 3.772.52 1.022 1.24 1.802 2.161 2.339.92.529 1.99.793 3.208.793.793 0 1.509-.111 2.148-.333a4.605 4.605 0 0 0 1.675-1.022c.469-.46.831-1.032 1.087-1.713l2.914.818a6.456 6.456 0 0 1-1.547 2.608c-.724.741-1.619 1.321-2.684 1.738-1.066.41-2.263.614-3.593.614Zm12.721-.409v-19.636h2.914v2.966h.205c.358-.972 1.006-1.76 1.943-2.366.938-.605 1.994-.907 3.171-.907.221 0 .498.004.831.013.332.008.583.021.754.038v3.068a9.202 9.202 0 0 0-.703-.115 6.892 6.892 0 0 0-1.138-.089c-.955 0-1.807.2-2.557.6a4.538 4.538 0 0 0-1.764 1.637c-.426.69-.639 1.478-.639 2.365V524h-3.017Zm29.298.46c-1.245 0-2.374-.234-3.388-.703-1.014-.477-1.82-1.163-2.416-2.058-.597-.904-.895-1.994-.895-3.273 0-1.125.221-2.037.664-2.736a4.708 4.708 0 0 1 1.777-1.662c.742-.4 1.56-.698 2.455-.894a29.587 29.587 0 0 1 2.723-.486c1.193-.154 2.161-.269 2.902-.345.75-.086 1.295-.226 1.636-.422.35-.196.525-.537.525-1.023v-.102c0-1.262-.346-2.242-1.036-2.941-.682-.699-1.717-1.048-3.107-1.048-1.44 0-2.569.315-3.387.946-.819.631-1.394 1.304-1.726 2.02l-2.864-1.023c.512-1.193 1.193-2.122 2.046-2.787a7.66 7.66 0 0 1 2.812-1.406 11.67 11.67 0 0 1 3.017-.409c.631 0 1.355.077 2.173.23a6.962 6.962 0 0 1 2.391.908c.776.46 1.419 1.155 1.931 2.084.511.929.767 2.173.767 3.732V524h-3.017v-2.659h-.154c-.204.426-.545.882-1.023 1.368-.477.486-1.112.899-1.904 1.24-.793.341-1.76.511-2.902.511Zm.46-2.71c1.193 0 2.199-.234 3.017-.703.827-.469 1.449-1.074 1.866-1.815.426-.742.64-1.522.64-2.34v-2.761c-.128.153-.41.294-.844.422-.426.119-.921.225-1.483.319-.554.085-1.095.162-1.624.23-.52.06-.942.111-1.265.154a11.52 11.52 0 0 0-2.199.498c-.674.222-1.219.558-1.637 1.01-.409.443-.613 1.048-.613 1.816 0 1.048.388 1.84 1.163 2.377.784.529 1.777.793 2.979.793Zm27.955-12.989-2.71.767a5.036 5.036 0 0 0-.754-1.316c-.324-.435-.767-.793-1.33-1.074-.562-.281-1.282-.422-2.16-.422-1.202 0-2.203.277-3.004.831-.793.545-1.189 1.24-1.189 2.084 0 .75.272 1.342.818 1.777.545.434 1.398.797 2.557 1.086l2.914.716c1.756.426 3.064 1.078 3.925 1.956.861.87 1.291 1.99 1.291 3.362 0 1.125-.324 2.131-.971 3.017-.639.887-1.534 1.586-2.685 2.097-1.15.511-2.489.767-4.014.767-2.003 0-3.661-.435-4.973-1.304-1.313-.869-2.144-2.139-2.493-3.81l2.864-.715c.272 1.056.788 1.849 1.546 2.377.768.529 1.769.793 3.005.793 1.406 0 2.522-.298 3.349-.895.835-.605 1.253-1.329 1.253-2.173 0-.682-.239-1.253-.716-1.713-.477-.469-1.21-.818-2.199-1.049l-3.272-.767c-1.799-.426-3.12-1.086-3.964-1.981-.835-.904-1.252-2.033-1.252-3.388 0-1.108.311-2.088.933-2.94.631-.853 1.487-1.522 2.569-2.007 1.091-.486 2.327-.729 3.708-.729 1.943 0 3.469.426 4.577 1.278 1.116.853 1.909 1.978 2.377 3.375Zm18.809 0-2.71.767a5.04 5.04 0 0 0-.755-1.316c-.323-.435-.767-.793-1.329-1.074-.563-.281-1.283-.422-2.161-.422-1.201 0-2.203.277-3.004.831-.792.545-1.189 1.24-1.189 2.084 0 .75.273 1.342.818 1.777.546.434 1.398.797 2.557 1.086l2.915.716c1.756.426 3.064 1.078 3.925 1.956.861.87 1.291 1.99 1.291 3.362 0 1.125-.324 2.131-.972 3.017-.639.887-1.534 1.586-2.684 2.097-1.151.511-2.489.767-4.015.767-2.002 0-3.66-.435-4.973-1.304-1.312-.869-2.143-2.139-2.492-3.81l2.863-.715c.273 1.056.789 1.849 1.547 2.377.767.529 1.769.793 3.004.793 1.407 0 2.523-.298 3.35-.895.835-.605 1.253-1.329 1.253-2.173 0-.682-.239-1.253-.716-1.713-.478-.469-1.211-.818-2.199-1.049l-3.273-.767c-1.798-.426-3.119-1.086-3.963-1.981-.835-.904-1.253-2.033-1.253-3.388 0-1.108.311-2.088.933-2.94.631-.853 1.488-1.522 2.57-2.007 1.091-.486 2.327-.729 3.707-.729 1.944 0 3.469.426 4.577 1.278 1.117.853 1.909 1.978 2.378 3.375Zm13.132 15.648c-1.892 0-3.524-.418-4.896-1.253-1.363-.844-2.416-2.02-3.158-3.528-.732-1.517-1.099-3.281-1.099-5.293 0-2.011.367-3.784 1.099-5.318.742-1.543 1.773-2.744 3.094-3.605 1.33-.869 2.881-1.304 4.654-1.304 1.022 0 2.032.17 3.029.511a7.5 7.5 0 0 1 2.723 1.662c.819.759 1.471 1.764 1.956 3.017.486 1.253.729 2.796.729 4.628v1.279h-15.136v-2.608h12.068c0-1.108-.222-2.097-.665-2.966a5.007 5.007 0 0 0-1.866-2.059c-.801-.502-1.747-.754-2.838-.754-1.202 0-2.242.298-3.12.895a5.89 5.89 0 0 0-2.007 2.301 6.756 6.756 0 0 0-.703 3.043v1.738c0 1.483.256 2.741.767 3.772.52 1.022 1.24 1.802 2.161 2.339.92.529 1.99.793 3.208.793.793 0 1.509-.111 2.148-.333a4.605 4.605 0 0 0 1.675-1.022c.469-.46.831-1.032 1.087-1.713l2.914.818a6.456 6.456 0 0 1-1.547 2.608c-.724.741-1.619 1.321-2.684 1.738-1.066.41-2.263.614-3.593.614Zm21.26-20.045v2.556h-10.176v-2.556h10.176Zm-7.21-4.705h3.017v18.716c0 .852.124 1.491.371 1.918.256.417.579.698.972.843.4.137.822.205 1.265.205.333 0 .605-.017.818-.051l.512-.102.613 2.71c-.204.076-.49.153-.856.23-.367.085-.831.128-1.394.128a6.078 6.078 0 0 1-2.505-.55 4.98 4.98 0 0 1-2.02-1.675c-.529-.75-.793-1.696-.793-2.838v-19.534Zm25.306 9.102-2.71.767a5.036 5.036 0 0 0-.754-1.316c-.324-.435-.767-.793-1.33-1.074-.562-.281-1.282-.422-2.16-.422-1.202 0-2.203.277-3.005.831-.792.545-1.188 1.24-1.188 2.084 0 .75.272 1.342.818 1.777.545.434 1.397.797 2.557 1.086l2.914.716c1.756.426 3.064 1.078 3.925 1.956.861.87 1.291 1.99 1.291 3.362 0 1.125-.324 2.131-.971 3.017-.64.887-1.534 1.586-2.685 2.097-1.151.511-2.489.767-4.014.767-2.003 0-3.661-.435-4.973-1.304-1.313-.869-2.144-2.139-2.493-3.81l2.863-.715c.273 1.056.789 1.849 1.547 2.377.767.529 1.769.793 3.005.793 1.406 0 2.522-.298 3.349-.895.835-.605 1.253-1.329 1.253-2.173 0-.682-.239-1.253-.716-1.713-.477-.469-1.21-.818-2.199-1.049l-3.273-.767c-1.798-.426-3.119-1.086-3.963-1.981-.835-.904-1.253-2.033-1.253-3.388 0-1.108.312-2.088.934-2.94.63-.853 1.487-1.522 2.569-2.007 1.091-.486 2.327-.729 3.708-.729 1.943 0 3.468.426 4.576 1.278 1.117.853 1.91 1.978 2.378 3.375Zm23.769-4.397v2.556h-10.585v-2.556h10.585ZM370.657 524v-22.347c0-1.125.265-2.062.793-2.812a4.908 4.908 0 0 1 2.058-1.688 6.509 6.509 0 0 1 2.672-.562c.742 0 1.347.06 1.815.179.469.119.819.23 1.049.332l-.87 2.608a15.118 15.118 0 0 0-.639-.192c-.264-.076-.613-.115-1.048-.115-.997 0-1.717.252-2.161.755-.434.503-.652 1.24-.652 2.211V524h-3.017Zm18.812.409c-1.773 0-3.328-.422-4.666-1.266-1.33-.843-2.369-2.024-3.119-3.541-.742-1.517-1.113-3.29-1.113-5.318 0-2.045.371-3.831 1.113-5.356.75-1.526 1.789-2.711 3.119-3.554 1.338-.844 2.893-1.266 4.666-1.266 1.773 0 3.324.422 4.654 1.266 1.338.843 2.377 2.028 3.119 3.554.75 1.525 1.125 3.311 1.125 5.356 0 2.028-.375 3.801-1.125 5.318-.742 1.517-1.781 2.698-3.119 3.541-1.33.844-2.881 1.266-4.654 1.266Zm0-2.71c1.347 0 2.455-.345 3.324-1.036.869-.69 1.513-1.598 1.93-2.723.418-1.125.627-2.343.627-3.656 0-1.312-.209-2.535-.627-3.669-.417-1.133-1.061-2.05-1.93-2.749-.869-.698-1.977-1.048-3.324-1.048-1.346 0-2.454.35-3.324 1.048-.869.699-1.513 1.616-1.93 2.749-.418 1.134-.627 2.357-.627 3.669 0 1.313.209 2.531.627 3.656.417 1.125 1.061 2.033 1.93 2.723.87.691 1.978 1.036 3.324 1.036ZM402.972 524v-19.636h2.915v2.966h.205c.358-.972 1.005-1.76 1.943-2.366.937-.605 1.994-.907 3.17-.907.222 0 .499.004.831.013.333.008.584.021.754.038v3.068a9.11 9.11 0 0 0-.703-.115 6.88 6.88 0 0 0-1.137-.089c-.955 0-1.807.2-2.557.6a4.524 4.524 0 0 0-1.764 1.637c-.427.69-.64 1.478-.64 2.365V524h-3.017Zm25.463 7.364a6.63 6.63 0 0 1-1.368-.128c-.4-.077-.677-.154-.831-.23l.767-2.659c.733.187 1.381.255 1.943.204.563-.051 1.061-.302 1.496-.754.443-.443.848-1.163 1.215-2.161l.562-1.534-7.261-19.738h3.272l5.421 15.647h.204l5.421-15.647h3.273l-8.336 22.5c-.375 1.014-.839 1.853-1.393 2.518-.554.673-1.197 1.172-1.93 1.496-.725.324-1.543.486-2.455.486Zm25.37-6.955c-1.773 0-3.328-.422-4.666-1.266-1.33-.843-2.369-2.024-3.119-3.541-.742-1.517-1.113-3.29-1.113-5.318 0-2.045.371-3.831 1.113-5.356.75-1.526 1.789-2.711 3.119-3.554 1.338-.844 2.893-1.266 4.666-1.266 1.773 0 3.324.422 4.653 1.266 1.339.843 2.378 2.028 3.12 3.554.75 1.525 1.125 3.311 1.125 5.356 0 2.028-.375 3.801-1.125 5.318-.742 1.517-1.781 2.698-3.12 3.541-1.329.844-2.88 1.266-4.653 1.266Zm0-2.71c1.347 0 2.455-.345 3.324-1.036.869-.69 1.513-1.598 1.93-2.723.418-1.125.627-2.343.627-3.656 0-1.312-.209-2.535-.627-3.669-.417-1.133-1.061-2.05-1.93-2.749-.869-.698-1.977-1.048-3.324-1.048-1.347 0-2.455.35-3.324 1.048-.869.699-1.513 1.616-1.93 2.749-.418 1.134-.627 2.357-.627 3.669 0 1.313.209 2.531.627 3.656.417 1.125 1.061 2.033 1.93 2.723.869.691 1.977 1.036 3.324 1.036Zm25.878-5.727v-11.608h3.017V524h-3.017v-3.324h-.204c-.461.997-1.176 1.845-2.148 2.544-.972.691-2.199 1.036-3.682 1.036-1.227 0-2.318-.269-3.273-.806-.954-.545-1.704-1.363-2.25-2.454-.545-1.1-.818-2.485-.818-4.155v-12.477h3.017v12.272c0 1.432.401 2.574 1.202 3.426.81.853 1.841 1.279 3.094 1.279.75 0 1.513-.192 2.288-.575.784-.384 1.44-.972 1.969-1.765.537-.792.805-1.802.805-3.029Zm8.543 8.028v-19.636h2.915v2.966h.205c.357-.972 1.005-1.76 1.943-2.366.937-.605 1.994-.907 3.17-.907.222 0 .499.004.831.013.333.008.584.021.754.038v3.068a9.11 9.11 0 0 0-.703-.115 6.883 6.883 0 0 0-1.138-.089c-.954 0-1.806.2-2.556.6a4.534 4.534 0 0 0-1.765 1.637c-.426.69-.639 1.478-.639 2.365V524h-3.017Zm27.969 0-5.983-19.636h3.17l4.244 15.034h.205l4.193-15.034h3.222l4.142 14.983h.204l4.245-14.983h3.17L531.024 524h-2.966l-4.295-15.085h-.307L519.161 524h-2.966Zm32.366.409c-1.892 0-3.524-.418-4.897-1.253-1.363-.844-2.416-2.02-3.157-3.528-.733-1.517-1.1-3.281-1.1-5.293 0-2.011.367-3.784 1.1-5.318.741-1.543 1.772-2.744 3.093-3.605 1.33-.869 2.881-1.304 4.654-1.304 1.023 0 2.033.17 3.03.511a7.509 7.509 0 0 1 2.723 1.662c.818.759 1.47 1.764 1.956 3.017s.728 2.796.728 4.628v1.279h-15.136v-2.608h12.068c0-1.108-.221-2.097-.665-2.966a5 5 0 0 0-1.866-2.059c-.801-.502-1.747-.754-2.838-.754-1.202 0-2.242.298-3.119.895a5.885 5.885 0 0 0-2.008 2.301 6.77 6.77 0 0 0-.703 3.043v1.738c0 1.483.256 2.741.767 3.772.52 1.022 1.24 1.802 2.161 2.339.92.529 1.99.793 3.209.793.792 0 1.508-.111 2.147-.333a4.605 4.605 0 0 0 1.675-1.022c.469-.46.831-1.032 1.087-1.713l2.915.818a6.468 6.468 0 0 1-1.547 2.608c-.725.741-1.62 1.321-2.685 1.738-1.065.41-2.263.614-3.592.614ZM561.69 524v-26.182h3.017v9.665h.256c.221-.341.528-.776.92-1.304.401-.537.972-1.014 1.713-1.432.75-.426 1.764-.639 3.043-.639 1.653 0 3.111.413 4.372 1.24 1.261.827 2.246 1.999 2.953 3.516.708 1.517 1.061 3.306 1.061 5.369 0 2.079-.353 3.882-1.061 5.408-.707 1.517-1.687 2.693-2.94 3.528-1.253.827-2.698 1.24-4.334 1.24-1.261 0-2.271-.209-3.03-.626-.758-.426-1.342-.908-1.751-1.445a19.065 19.065 0 0 1-.946-1.355h-.358V524h-2.915Zm2.966-9.818c0 1.483.217 2.791.652 3.925.435 1.125 1.069 2.007 1.905 2.646.835.631 1.858.946 3.068.946 1.261 0 2.314-.333 3.158-.997.852-.674 1.491-1.577 1.917-2.711.435-1.142.652-2.411.652-3.809 0-1.381-.213-2.625-.639-3.733-.418-1.117-1.053-1.999-1.905-2.646-.844-.657-1.905-.985-3.183-.985-1.227 0-2.259.311-3.094.933-.835.614-1.466 1.475-1.892 2.583-.426 1.099-.639 2.382-.639 3.848Zm29.109 17.182v-27h2.915v3.119h.358c.222-.341.528-.776.92-1.304.401-.537.972-1.014 1.714-1.432.75-.426 1.764-.639 3.042-.639 1.654 0 3.111.413 4.372 1.24 1.262.827 2.246 1.999 2.953 3.516.708 1.517 1.061 3.306 1.061 5.369 0 2.079-.353 3.882-1.061 5.408-.707 1.517-1.687 2.693-2.94 3.528-1.253.827-2.697 1.24-4.334 1.24-1.261 0-2.271-.209-3.03-.626-.758-.426-1.342-.908-1.751-1.445a19.403 19.403 0 0 1-.946-1.355h-.256v10.381h-3.017Zm2.966-17.182c0 1.483.218 2.791.652 3.925.435 1.125 1.07 2.007 1.905 2.646.835.631 1.858.946 3.068.946 1.262 0 2.314-.333 3.158-.997.852-.674 1.491-1.577 1.917-2.711.435-1.142.652-2.411.652-3.809 0-1.381-.213-2.625-.639-3.733-.417-1.117-1.052-1.999-1.905-2.646-.843-.657-1.904-.985-3.183-.985-1.227 0-2.258.311-3.094.933-.835.614-1.465 1.475-1.892 2.583-.426 1.099-.639 2.382-.639 3.848ZM615.703 524v-19.636h2.915v2.966h.204c.358-.972 1.006-1.76 1.943-2.366.938-.605 1.995-.907 3.171-.907.221 0 .498.004.831.013.332.008.583.021.754.038v3.068a9.202 9.202 0 0 0-.703-.115 6.883 6.883 0 0 0-1.138-.089c-.955 0-1.807.2-2.557.6a4.538 4.538 0 0 0-1.764 1.637c-.426.69-.639 1.478-.639 2.365V524h-3.017Zm20.774.409c-1.773 0-3.328-.422-4.666-1.266-1.33-.843-2.37-2.024-3.12-3.541-.741-1.517-1.112-3.29-1.112-5.318 0-2.045.371-3.831 1.112-5.356.75-1.526 1.79-2.711 3.12-3.554 1.338-.844 2.893-1.266 4.666-1.266 1.773 0 3.324.422 4.653 1.266 1.338.843 2.378 2.028 3.12 3.554.75 1.525 1.125 3.311 1.125 5.356 0 2.028-.375 3.801-1.125 5.318-.742 1.517-1.782 2.698-3.12 3.541-1.329.844-2.88 1.266-4.653 1.266Zm0-2.71c1.347 0 2.454-.345 3.324-1.036.869-.69 1.513-1.598 1.93-2.723.418-1.125.627-2.343.627-3.656 0-1.312-.209-2.535-.627-3.669-.417-1.133-1.061-2.05-1.93-2.749-.87-.698-1.977-1.048-3.324-1.048-1.347 0-2.455.35-3.324 1.048-.869.699-1.513 1.616-1.93 2.749-.418 1.134-.627 2.357-.627 3.669 0 1.313.209 2.531.627 3.656.417 1.125 1.061 2.033 1.93 2.723.869.691 1.977 1.036 3.324 1.036Zm13.503-17.335h3.017v21.068c0 1.21-.209 2.258-.626 3.145a4.514 4.514 0 0 1-1.867 2.058c-.826.486-1.87.729-3.132.729h-.613v-2.813h.562c.92 0 1.594-.273 2.02-.818.426-.537.639-1.304.639-2.301v-21.068Zm1.483-3.273c-.588 0-1.095-.2-1.521-.601a1.93 1.93 0 0 1-.627-1.445c0-.562.209-1.044.627-1.444a2.143 2.143 0 0 1 1.521-.601c.588 0 1.091.2 1.509.601.426.4.639.882.639 1.444 0 .563-.213 1.044-.639 1.445a2.101 2.101 0 0 1-1.509.601Zm15.293 23.318c-1.892 0-3.524-.418-4.896-1.253-1.364-.844-2.416-2.02-3.158-3.528-.733-1.517-1.099-3.281-1.099-5.293 0-2.011.366-3.784 1.099-5.318.742-1.543 1.773-2.744 3.094-3.605 1.329-.869 2.88-1.304 4.653-1.304 1.023 0 2.033.17 3.03.511a7.509 7.509 0 0 1 2.723 1.662c.818.759 1.47 1.764 1.956 3.017s.729 2.796.729 4.628v1.279H659.75v-2.608h12.069c0-1.108-.222-2.097-.665-2.966a5.01 5.01 0 0 0-1.867-2.059c-.801-.502-1.747-.754-2.838-.754-1.201 0-2.241.298-3.119.895a5.89 5.89 0 0 0-2.007 2.301 6.756 6.756 0 0 0-.703 3.043v1.738c0 1.483.255 2.741.767 3.772.52 1.022 1.24 1.802 2.16 2.339.921.529 1.99.793 3.209.793.793 0 1.509-.111 2.148-.333a4.6 4.6 0 0 0 1.674-1.022c.469-.46.831-1.032 1.087-1.713l2.915.818a6.468 6.468 0 0 1-1.547 2.608c-.724.741-1.619 1.321-2.685 1.738-1.065.41-2.262.614-3.592.614Zm20.697 0c-1.84 0-3.426-.435-4.755-1.304-1.33-.869-2.352-2.067-3.068-3.592-.716-1.526-1.074-3.269-1.074-5.229 0-1.994.366-3.754 1.099-5.28.742-1.534 1.773-2.731 3.094-3.592 1.329-.869 2.881-1.304 4.653-1.304 1.381 0 2.625.256 3.733.767s2.016 1.227 2.723 2.148c.708.92 1.147 1.994 1.317 3.221h-3.017c-.23-.895-.741-1.687-1.534-2.378-.784-.698-1.841-1.048-3.171-1.048-1.176 0-2.207.307-3.093.921-.878.605-1.564 1.461-2.059 2.569-.485 1.1-.728 2.391-.728 3.874 0 1.517.238 2.838.716 3.963.486 1.125 1.167 1.998 2.045 2.621.887.622 1.926.933 3.119.933.785 0 1.496-.137 2.135-.409a4.404 4.404 0 0 0 1.624-1.176 4.508 4.508 0 0 0 .946-1.841h3.017a6.977 6.977 0 0 1-1.266 3.132c-.664.92-1.546 1.653-2.646 2.199-1.091.537-2.361.805-3.81.805Zm20.672-20.045v2.556h-10.176v-2.556h10.176Zm-7.21-4.705h3.017v18.716c0 .852.124 1.491.371 1.918.256.417.579.698.972.843.4.137.822.205 1.265.205.333 0 .605-.017.818-.051l.512-.102.613 2.71c-.204.076-.49.153-.856.23-.367.085-.831.128-1.394.128a6.078 6.078 0 0 1-2.505-.55 4.98 4.98 0 0 1-2.02-1.675c-.529-.75-.793-1.696-.793-2.838v-19.534Zm13.948 24.546a2.215 2.215 0 0 1-1.624-.678 2.215 2.215 0 0 1-.678-1.624c0-.63.226-1.171.678-1.623a2.215 2.215 0 0 1 1.624-.678c.63 0 1.171.226 1.623.678.452.452.678.993.678 1.623 0 .418-.107.802-.32 1.151a2.382 2.382 0 0 1-.831.844 2.197 2.197 0 0 1-1.15.307ZM88.989 548.364c-.154-1.296-.776-2.302-1.867-3.017-1.09-.716-2.429-1.074-4.014-1.074-1.16 0-2.173.187-3.043.562-.86.375-1.534.891-2.02 1.547a3.707 3.707 0 0 0-.716 2.237c0 .699.167 1.3.5 1.803.34.494.775.908 1.303 1.24a9.326 9.326 0 0 0 1.662.805c.58.205 1.112.371 1.598.499l2.66.716c.681.179 1.44.426 2.275.741.844.316 1.649.746 2.416 1.291a6.576 6.576 0 0 1 1.918 2.072c.502.843.754 1.879.754 3.106 0 1.415-.371 2.693-1.112 3.835-.733 1.142-1.807 2.05-3.222 2.723-1.406.674-3.115 1.01-5.127 1.01-1.874 0-3.498-.302-4.87-.907-1.364-.606-2.438-1.449-3.222-2.532-.775-1.082-1.214-2.339-1.316-3.771h3.272c.085.989.418 1.807.997 2.455.588.639 1.33 1.116 2.225 1.431a9.001 9.001 0 0 0 2.914.461c1.21 0 2.297-.196 3.26-.588.964-.401 1.726-.955 2.289-1.662.562-.716.844-1.552.844-2.506 0-.869-.243-1.577-.73-2.122-.485-.546-1.124-.989-1.917-1.33a20.188 20.188 0 0 0-2.57-.895l-3.22-.92c-2.046-.588-3.666-1.428-4.859-2.519-1.193-1.091-1.79-2.518-1.79-4.282 0-1.466.397-2.745 1.19-3.835.8-1.1 1.874-1.952 3.22-2.557 1.356-.614 2.869-.921 4.54-.921 1.687 0 3.187.303 4.5.908 1.312.596 2.352 1.415 3.118 2.454a6.117 6.117 0 0 1 1.228 3.542h-3.068ZM97.219 568v-19.636h3.016V568h-3.017Zm1.534-22.909c-.589 0-1.096-.2-1.522-.601a1.931 1.931 0 0 1-.626-1.445c0-.562.209-1.044.626-1.444a2.143 2.143 0 0 1 1.522-.601c.588 0 1.09.2 1.508.601.426.4.639.882.639 1.444 0 .563-.213 1.044-.639 1.445a2.1 2.1 0 0 1-1.508.601ZM105.76 568v-19.636h2.915v3.068h.256c.409-1.048 1.069-1.862 1.981-2.442.912-.588 2.007-.882 3.286-.882 1.295 0 2.373.294 3.234.882.87.58 1.547 1.394 2.033 2.442h.204c.503-1.014 1.258-1.82 2.263-2.416 1.006-.605 2.212-.908 3.618-.908 1.756 0 3.192.55 4.308 1.649 1.117 1.091 1.675 2.791 1.675 5.101V568h-3.017v-13.142c0-1.449-.396-2.484-1.189-3.107-.792-.622-1.726-.933-2.8-.933-1.38 0-2.45.418-3.208 1.253-.759.827-1.138 1.875-1.138 3.145V568h-3.068v-13.449c0-1.116-.363-2.015-1.087-2.697-.724-.691-1.658-1.036-2.8-1.036-.784 0-1.517.209-2.199.627-.673.417-1.218.997-1.636 1.738-.409.733-.614 1.581-.614 2.544V568h-3.017Zm31.289 7.364v-27h2.915v3.119h.358c.222-.341.529-.776.921-1.304.4-.537.971-1.014 1.713-1.432.75-.426 1.764-.639 3.042-.639 1.654 0 3.111.413 4.372 1.24 1.262.827 2.246 1.999 2.954 3.516.707 1.517 1.061 3.306 1.061 5.369 0 2.079-.354 3.882-1.061 5.408-.708 1.517-1.688 2.693-2.941 3.528-1.253.827-2.697 1.24-4.334 1.24-1.261 0-2.271-.209-3.029-.626-.759-.426-1.343-.908-1.752-1.445a19.403 19.403 0 0 1-.946-1.355h-.256v10.381h-3.017Zm2.966-17.182c0 1.483.218 2.791.652 3.925.435 1.125 1.07 2.007 1.905 2.646.835.631 1.858.946 3.068.946 1.262 0 2.314-.333 3.158-.997.852-.674 1.491-1.577 1.918-2.711.434-1.142.652-2.411.652-3.809 0-1.381-.213-2.625-.64-3.733-.417-1.117-1.052-1.999-1.904-2.646-.844-.657-1.905-.985-3.184-.985-1.227 0-2.258.311-3.093.933-.836.614-1.466 1.475-1.892 2.583-.427 1.099-.64 2.382-.64 3.848Zm21.989-16.364V568h-3.017v-26.182h3.017Zm13.759 26.591c-1.892 0-3.524-.418-4.896-1.253-1.364-.844-2.417-2.02-3.158-3.528-.733-1.517-1.1-3.281-1.1-5.293 0-2.011.367-3.784 1.1-5.318.741-1.543 1.773-2.744 3.094-3.605 1.329-.869 2.88-1.304 4.653-1.304 1.023 0 2.033.17 3.03.511a7.509 7.509 0 0 1 2.723 1.662c.818.759 1.47 1.764 1.956 3.017s.729 2.796.729 4.628v1.279h-15.137v-2.608h12.068c0-1.108-.221-2.097-.664-2.966a5.01 5.01 0 0 0-1.867-2.059c-.801-.502-1.747-.754-2.838-.754-1.202 0-2.241.298-3.119.895a5.874 5.874 0 0 0-2.007 2.301 6.757 6.757 0 0 0-.704 3.043v1.738c0 1.483.256 2.741.768 3.772.519 1.022 1.24 1.802 2.16 2.339.92.529 1.99.793 3.209.793.792 0 1.508-.111 2.148-.333a4.6 4.6 0 0 0 1.674-1.022c.469-.46.831-1.032 1.087-1.713l2.915.818a6.468 6.468 0 0 1-1.547 2.608c-.725.741-1.619 1.321-2.685 1.738-1.065.41-2.263.614-3.592.614Zm14.919-.204a2.215 2.215 0 0 1-1.624-.678 2.218 2.218 0 0 1-.677-1.624c0-.63.226-1.171.677-1.623a2.215 2.215 0 0 1 1.624-.678c.631 0 1.172.226 1.623.678.452.452.678.993.678 1.623 0 .418-.107.802-.32 1.151a2.382 2.382 0 0 1-.831.844c-.34.204-.724.307-1.15.307Zm23.005-.205-7.159-26.182h3.221l5.472 21.324h.256l5.573-21.324h3.58l5.574 21.324h.256l5.471-21.324h3.222L231.995 568h-3.273l-5.778-20.864h-.205L216.961 568h-3.273Zm29.007 0v-19.636h3.017V568h-3.017Zm1.534-22.909c-.588 0-1.095-.2-1.521-.601a1.93 1.93 0 0 1-.627-1.445c0-.562.209-1.044.627-1.444a2.143 2.143 0 0 1 1.521-.601c.588 0 1.091.2 1.509.601.426.4.639.882.639 1.444 0 .563-.213 1.044-.639 1.445a2.101 2.101 0 0 1-1.509.601Zm15.549 3.273v2.556h-10.176v-2.556h10.176Zm-7.211-4.705h3.018v18.716c0 .852.123 1.491.37 1.918.256.417.58.698.972.843.4.137.822.205 1.265.205.333 0 .606-.017.819-.051l.511-.102.614 2.71c-.205.076-.49.153-.857.23-.366.085-.831.128-1.393.128a6.079 6.079 0 0 1-2.506-.55 4.98 4.98 0 0 1-2.02-1.675c-.528-.75-.793-1.696-.793-2.838v-19.534Zm15.188 12.529V568h-3.017v-26.182h3.017v9.614h.256a5.543 5.543 0 0 1 2.071-2.416c.929-.605 2.164-.908 3.707-.908 1.338 0 2.51.268 3.516.805 1.005.529 1.785 1.343 2.339 2.442.563 1.091.844 2.48.844 4.168V568h-3.017v-12.273c0-1.559-.405-2.765-1.215-3.618-.801-.86-1.913-1.291-3.336-1.291-.989 0-1.875.209-2.659.627a4.567 4.567 0 0 0-1.841 1.828c-.443.801-.665 1.772-.665 2.915Zm28.377-7.824h3.018v21.068c0 1.21-.209 2.258-.627 3.145a4.512 4.512 0 0 1-1.866 2.058c-.827.486-1.871.729-3.132.729h-.614v-2.813h.562c.921 0 1.594-.273 2.02-.818.426-.537.639-1.304.639-2.301v-21.068Zm1.483-3.273c-.588 0-1.095-.2-1.521-.601a1.93 1.93 0 0 1-.626-1.445c0-.562.208-1.044.626-1.444a2.143 2.143 0 0 1 1.521-.601c.588 0 1.091.2 1.509.601.426.4.639.882.639 1.444 0 .563-.213 1.044-.639 1.445a2.101 2.101 0 0 1-1.509.601Zm19.435 14.881v-11.608h3.017V568h-3.017v-3.324h-.204c-.46.997-1.176 1.845-2.148 2.544-.971.691-2.199 1.036-3.682 1.036-1.227 0-2.318-.269-3.272-.806-.955-.545-1.705-1.363-2.25-2.454-.546-1.1-.819-2.485-.819-4.155v-12.477h3.017v12.272c0 1.432.401 2.574 1.202 3.426.81.853 1.841 1.279 3.094 1.279.75 0 1.513-.192 2.288-.575.784-.384 1.441-.972 1.969-1.765.537-.792.805-1.802.805-3.029Zm22.452-7.211-2.71.767a5.036 5.036 0 0 0-.754-1.316c-.324-.435-.767-.793-1.33-1.074-.562-.281-1.282-.422-2.16-.422-1.202 0-2.203.277-3.004.831-.793.545-1.189 1.24-1.189 2.084 0 .75.272 1.342.818 1.777.545.434 1.398.797 2.557 1.086l2.915.716c1.755.426 3.063 1.078 3.924 1.956.861.87 1.291 1.99 1.291 3.362 0 1.125-.323 2.131-.971 3.017-.639.887-1.534 1.586-2.685 2.097-1.15.511-2.488.767-4.014.767-2.003 0-3.661-.435-4.973-1.304-1.313-.869-2.143-2.139-2.493-3.81l2.864-.715c.272 1.056.788 1.849 1.547 2.377.767.529 1.768.793 3.004.793 1.406 0 2.523-.298 3.349-.895.836-.605 1.253-1.329 1.253-2.173 0-.682-.239-1.253-.716-1.713-.477-.469-1.21-.818-2.199-1.049l-3.272-.767c-1.799-.426-3.12-1.086-3.963-1.981-.836-.904-1.253-2.033-1.253-3.388 0-1.108.311-2.088.933-2.94.631-.853 1.487-1.522 2.57-2.007 1.09-.486 2.326-.729 3.707-.729 1.943 0 3.469.426 4.577 1.278 1.116.853 1.909 1.978 2.377 3.375Zm13.44-4.397v2.556h-10.176v-2.556h10.176Zm-7.21-4.705h3.017v18.716c0 .852.123 1.491.37 1.918.256.417.58.698.972.843.4.137.822.205 1.266.205.332 0 .605-.017.818-.051l.511-.102.614 2.71c-.205.076-.49.153-.857.23-.366.085-.831.128-1.393.128a6.079 6.079 0 0 1-2.506-.55 4.98 4.98 0 0 1-2.02-1.675c-.528-.75-.792-1.696-.792-2.838v-19.534Zm29.85 24.75c-1.772 0-3.328-.422-4.666-1.266-1.329-.843-2.369-2.024-3.119-3.541-.742-1.517-1.112-3.29-1.112-5.318 0-2.045.37-3.831 1.112-5.356.75-1.526 1.79-2.711 3.119-3.554 1.338-.844 2.894-1.266 4.666-1.266 1.773 0 3.324.422 4.654 1.266 1.338.843 2.378 2.028 3.119 3.554.75 1.525 1.125 3.311 1.125 5.356 0 2.028-.375 3.801-1.125 5.318-.741 1.517-1.781 2.698-3.119 3.541-1.33.844-2.881 1.266-4.654 1.266Zm0-2.71c1.347 0 2.455-.345 3.324-1.036.87-.69 1.513-1.598 1.931-2.723.417-1.125.626-2.343.626-3.656 0-1.312-.209-2.535-.626-3.669-.418-1.133-1.061-2.05-1.931-2.749-.869-.698-1.977-1.048-3.324-1.048-1.346 0-2.454.35-3.323 1.048-.87.699-1.513 1.616-1.931 2.749-.417 1.134-.626 2.357-.626 3.669 0 1.313.209 2.531.626 3.656.418 1.125 1.061 2.033 1.931 2.723.869.691 1.977 1.036 3.323 1.036Zm16.521-9.511V568h-3.017v-19.636H392v3.068h.256a5.611 5.611 0 0 1 2.097-2.404c.937-.613 2.147-.92 3.63-.92 1.33 0 2.493.273 3.49.818.998.537 1.773 1.355 2.327 2.455.554 1.091.831 2.471.831 4.142V568h-3.017v-12.273c0-1.542-.401-2.744-1.202-3.605-.801-.869-1.9-1.304-3.298-1.304-.963 0-1.824.209-2.582.627-.75.417-1.343 1.027-1.777 1.828-.435.801-.652 1.772-.652 2.915Zm26.274 12.221c-1.892 0-3.524-.418-4.896-1.253-1.364-.844-2.416-2.02-3.158-3.528-.733-1.517-1.099-3.281-1.099-5.293 0-2.011.366-3.784 1.099-5.318.742-1.543 1.773-2.744 3.094-3.605 1.329-.869 2.881-1.304 4.653-1.304 1.023 0 2.033.17 3.03.511a7.509 7.509 0 0 1 2.723 1.662c.818.759 1.47 1.764 1.956 3.017s.729 2.796.729 4.628v1.279H411.37v-2.608h12.069c0-1.108-.222-2.097-.665-2.966a5.01 5.01 0 0 0-1.867-2.059c-.801-.502-1.747-.754-2.838-.754-1.201 0-2.241.298-3.119.895a5.89 5.89 0 0 0-2.007 2.301 6.756 6.756 0 0 0-.703 3.043v1.738c0 1.483.255 2.741.767 3.772.52 1.022 1.24 1.802 2.16 2.339.921.529 1.99.793 3.209.793.793 0 1.509-.111 2.148-.333a4.605 4.605 0 0 0 1.675-1.022 4.65 4.65 0 0 0 1.086-1.713l2.915.818a6.456 6.456 0 0 1-1.547 2.608c-.724.741-1.619 1.321-2.685 1.738-1.065.41-2.262.614-3.592.614Zm31.385-20.045v2.556h-10.176v-2.556h10.176Zm-7.21-4.705h3.017v18.716c0 .852.123 1.491.371 1.918.255.417.579.698.971.843.401.137.823.205 1.266.205.332 0 .605-.017.818-.051l.511-.102.614 2.71c-.205.076-.49.153-.857.23-.366.085-.83.128-1.393.128a6.086 6.086 0 0 1-2.506-.55 4.987 4.987 0 0 1-2.02-1.675c-.528-.75-.792-1.696-.792-2.838v-19.534Zm19.515 24.75c-1.773 0-3.328-.422-4.666-1.266-1.33-.843-2.37-2.024-3.12-3.541-.741-1.517-1.112-3.29-1.112-5.318 0-2.045.371-3.831 1.112-5.356.75-1.526 1.79-2.711 3.12-3.554 1.338-.844 2.893-1.266 4.666-1.266 1.772 0 3.324.422 4.653 1.266 1.338.843 2.378 2.028 3.119 3.554.75 1.525 1.125 3.311 1.125 5.356 0 2.028-.375 3.801-1.125 5.318-.741 1.517-1.781 2.698-3.119 3.541-1.329.844-2.881 1.266-4.653 1.266Zm0-2.71c1.346 0 2.454-.345 3.324-1.036.869-.69 1.512-1.598 1.93-2.723.418-1.125.626-2.343.626-3.656 0-1.312-.208-2.535-.626-3.669-.418-1.133-1.061-2.05-1.93-2.749-.87-.698-1.978-1.048-3.324-1.048-1.347 0-2.455.35-3.324 1.048-.869.699-1.513 1.616-1.931 2.749-.417 1.134-.626 2.357-.626 3.669 0 1.313.209 2.531.626 3.656.418 1.125 1.062 2.033 1.931 2.723.869.691 1.977 1.036 3.324 1.036Zm21.48 2.71c-1.772 0-3.328-.422-4.666-1.266-1.33-.843-2.369-2.024-3.119-3.541-.742-1.517-1.112-3.29-1.112-5.318 0-2.045.37-3.831 1.112-5.356.75-1.526 1.789-2.711 3.119-3.554 1.338-.844 2.894-1.266 4.666-1.266 1.773 0 3.324.422 4.654 1.266 1.338.843 2.377 2.028 3.119 3.554.75 1.525 1.125 3.311 1.125 5.356 0 2.028-.375 3.801-1.125 5.318-.742 1.517-1.781 2.698-3.119 3.541-1.33.844-2.881 1.266-4.654 1.266Zm0-2.71c1.347 0 2.455-.345 3.324-1.036.869-.69 1.513-1.598 1.93-2.723.418-1.125.627-2.343.627-3.656 0-1.312-.209-2.535-.627-3.669-.417-1.133-1.061-2.05-1.93-2.749-.869-.698-1.977-1.048-3.324-1.048-1.346 0-2.454.35-3.324 1.048-.869.699-1.512 1.616-1.93 2.749-.418 1.134-.626 2.357-.626 3.669 0 1.313.208 2.531.626 3.656.418 1.125 1.061 2.033 1.93 2.723.87.691 1.978 1.036 3.324 1.036Zm16.52-23.881V568h-3.017v-26.182h3.017Zm7.725 26.387c-.63 0-1.172-.226-1.623-.678a2.215 2.215 0 0 1-.678-1.624c0-.63.226-1.171.678-1.623a2.213 2.213 0 0 1 1.623-.678c.631 0 1.172.226 1.624.678.452.452.677.993.677 1.623 0 .418-.106.802-.319 1.151a2.399 2.399 0 0 1-.831.844 2.2 2.2 0 0 1-1.151.307Z"/><path fill="url(#c)" d="M948.5 48h700v700h-700z"/><g clip-path="url(#d)"><path fill="#000" d="M1304.62 197.625c6.66 4.776 12.26 11.344 17.98 17.17 3.1 3.156 6.22 6.298 9.33 9.442 3.95 3.99 7.89 7.983 11.82 11.99 3.19 3.252 6.4 6.491 9.61 9.722 1.22 1.232 2.44 2.469 3.65 3.71 1.68 1.728 3.38 3.439 5.09 5.147.5.517.99 1.034 1.5 1.567 1.54 1.58 1.54 1.58 4.02 3.377 4.06-.07 7.55-2.283 11.11-4.098l1.97-.984c2.1-1.053 4.19-2.114 6.28-3.176 1.45-.728 2.9-1.456 4.34-2.184 7.71-3.882 15.38-7.809 22.99-11.869 8.14-4.334 16.42-8.409 24.69-12.506 1.75-.87 3.49-1.752 5.23-2.637 5.28-2.571 10.93-2.562 16.53-.991 5.85 2.135 10.25 5.954 13.12 11.484 3.43 7.545 2.32 14.116-.38 21.711-1.15 2.556-2.47 4.991-3.83 7.438l-2.34 4.347c-.42.774-.83 1.548-1.26 2.345-2.42 4.581-4.71 9.229-7.01 13.87-3.35 6.749-6.75 13.468-10.28 20.125-1.39 2.624-2.77 5.25-4.16 7.875-.56 1.078-.56 1.078-1.15 2.177a820.611 820.611 0 0 0-3.38 6.518l-1.06 1.995c-1.8 3.247-1.8 3.247-2.02 6.832.65 1.96.65 1.96 2.09 4.572 1.15 3.281 1.15 3.281-.06 6.549-.59 1.831-.59 1.831-.54 3.732 1.7 2.815 4.01 4.834 6.45 7 .64.594 1.27 1.189 1.92 1.801 1.57 1.463 3.15 2.902 4.75 4.324.87-.289 1.74-.577 2.63-.875 4.07-.465 6.97-.567 10.5 1.641 2.46 2.613 2.73 3.947 2.68 7.437-.01.675-.02 1.349-.02 2.044-.02.992-.02.992-.03 2.003-.35 3.346-.35 3.346 1.12 5.022.51.495 1.03.99 1.55 1.5.83.812.83.812 1.68 1.64.58.555 1.17 1.11 1.77 1.682.58.568 1.17 1.137 1.77 1.722 1.44 1.403 2.9 2.797 4.35 4.184.87-.289 1.74-.577 2.63-.875 3.6-.626 6.61-.75 9.82 1.152 4.89 4.087 8.79 8.934 9.43 15.473.61 7.184-1.49 12.619-5.36 18.649-6.12 5.717-11.62 7.089-19.87 6.954-7.17-.353-14.26-1.694-21.34-2.877-1.68-.273-3.36-.546-5.04-.817-4.38-.712-8.76-1.436-13.14-2.162-4.47-.737-8.94-1.463-13.4-2.191-6.52-1.063-13.04-2.13-19.56-3.207-.68-.111-1.35-.223-2.05-.338-3.22-.533-6.42-1.095-9.62-1.761-.22.596-.45 1.193-.68 1.807-1.22 2.952-2.62 5.799-4.04 8.654-.3.595-.6 1.19-.9 1.804l-2.94 5.888c-.69 1.377-1.37 2.754-2.06 4.131-1.44 2.889-2.89 5.777-4.33 8.665l-5.49 11.004c-1.42 2.849-2.84 5.696-4.27 8.543l-2.01 4.05c-3.3 6.626-6.65 13.215-10.27 19.675-.53.966-1.07 1.931-1.63 2.925-3.21 4.89-7.51 7.662-13 9.479-7.82.771-14.02.107-20.73-4.101-4.46-4.461-6.47-8.545-7.66-14.78-.11-.565-.22-1.13-.33-1.713-1.42-7.529-2.61-15.098-3.82-22.664l-.72-4.499L1305.5 440c-.37.374-.75.748-1.13 1.134a72962.186 72962.186 0 0 1-66.31 66.528c-2.66 2.662-5.31 5.325-7.97 7.987-.53.53-1.06 1.06-1.6 1.607-8.56 8.577-17.11 17.162-25.66 25.75-8.77 8.815-17.55 17.621-26.34 26.42a7344.606 7344.606 0 0 0-16.25 16.304c-3.71 3.734-7.43 7.46-11.15 11.179-2.15 2.145-4.29 4.293-6.43 6.451-2.32 2.342-4.65 4.67-6.99 6.996-.67.678-1.33 1.356-2.02 2.055-4.98 4.916-10.8 9.45-18 10.139l-3.2-.058-3.2.004c-8.61-1.314-13.71-6.91-19.56-12.848a425.646 425.646 0 0 0-4.26-4.239c-5.49-5.476-10.21-10.178-11.43-18.156.01-1.058.01-2.116.01-3.206l-.06-3.192c.79-8.293 6.52-14.46 12.19-20.025l2.21-2.221c2.01-2.014 4.03-4.017 6.05-6.016 2.18-2.166 4.36-4.344 6.53-6.52 3.76-3.764 7.53-7.519 11.3-11.268 5.46-5.422 10.9-10.855 16.35-16.292 8.83-8.821 17.67-17.632 26.51-26.438 8.6-8.55 17.18-17.105 25.76-25.666.53-.528 1.06-1.057 1.61-1.601 2.65-2.65 5.31-5.301 7.96-7.951 22.01-21.966 44.04-43.917 66.08-65.857l-1.58-.242c-5.45-.838-10.9-1.693-16.35-2.556-2.03-.32-4.07-.636-6.1-.947-2.93-.45-5.86-.914-8.78-1.382-1.36-.202-1.36-.202-2.73-.409-9.05-1.475-15.13-4.467-20.68-12.019-3.21-5.385-3.01-11.32-2.4-17.445 2.13-7.322 6.36-11.151 12.85-14.843 4.45-2.424 8.98-4.696 13.5-6.977 1.49-.754 2.97-1.508 4.45-2.262 18.27-9.28 36.6-18.414 54.94-27.543-.51-7.885-1.77-15.611-3.07-23.394l-1.14-6.882a6469.2 6469.2 0 0 0-3.22-19.547c-.67-4.004-1.33-8.01-1.98-12.016-.25-1.512-.5-3.023-.76-4.534-4.15-24.624-4.15-24.624.89-33.271 7.41-9.744 19.41-12.257 30.28-7.106Z"/><path fill="#FDCA7B" d="M1295.88 213.375c1.55 1.022 1.55 1.022 3 2.485.56.551 1.11 1.102 1.68 1.67.6.612 1.19 1.224 1.81 1.855.64.639 1.27 1.278 1.93 1.936 2.11 2.116 4.2 4.247 6.3 6.379l4.38 4.407c3.85 3.87 7.68 7.753 11.51 11.638 5.41 5.479 10.84 10.94 16.26 16.404 2.89 2.911 5.78 5.827 8.66 8.746 1.31 1.327 2.62 2.654 3.94 3.981l1.82 1.85c.54.554 1.09 1.107 1.66 1.677.47.483.95.967 1.44 1.464 2.51 2.312 5.07 2.454 8.41 2.41 5.28-.868 9.9-3.868 14.53-6.418 1.13-.608 2.27-1.214 3.4-1.819 2.26-1.203 4.52-2.412 6.77-3.626 4.09-2.196 8.25-4.262 12.42-6.312 6.19-3.069 12.31-6.25 18.42-9.493 6.47-3.424 13.02-6.689 19.58-9.93 1.17-.579 1.17-.579 2.36-1.171.7-.343 1.4-.686 2.11-1.039 1.57-.727 1.57-.727 2.48-1.719 2.57-.164 2.57-.164 5.25 0 .58.577 1.16 1.155 1.75 1.75-.24 4.744-1.76 8.491-3.91 12.646-.3.607-.61 1.214-.92 1.839-.99 1.957-1.99 3.908-2.99 5.859-.69 1.355-1.37 2.711-2.06 4.067-3.77 7.436-7.6 14.843-11.52 22.199-3.41 6.417-6.64 12.925-9.86 19.443a244.531 244.531 0 0 1-7.46 13.955c-1.97 3.668-3.37 6.715-3.01 10.937 1.25 3.715 3.92 6.189 6.73 8.805.7.722 1.41 1.444 2.13 2.187 3.31 1.934 5.44 1.676 9.25 1.313 1.15-.578 2.31-1.155 3.5-1.75l14 14c.86-.289 1.73-.578 2.62-.875 4.07-.465 6.97-.567 10.5 1.641 2.46 2.613 2.73 3.947 2.68 7.437-.01.675-.02 1.349-.02 2.044-.02.991-.02.991-.03 2.003-.36 3.368-.36 3.368 1.2 5.102.55.532 1.1 1.063 1.67 1.611.59.581 1.18 1.162 1.79 1.76.63.597 1.25 1.193 1.9 1.808.62.61 1.25 1.221 1.89 1.849 1.55 1.507 3.11 3.004 4.67 4.495l-.85 1.538c-1.36 2.957-1.53 5.81-.9 8.962.95 1.497.95 1.497 2.19 2.789 2.19 2.461 2.19 2.461 2.62 4.813-.53 2.447-1.07 3.155-3.06 4.648-6.57.494-13.39-1.406-19.78-2.756-4-.803-8.01-1.37-12.05-1.92-10.02-1.4-20.02-2.981-30.01-4.59-2.96-.476-5.91-.949-8.87-1.422l-5.69-.913-2.66-.425-2.47-.399-2.16-.347c-1.44-.247-2.88-.522-4.32-.817-3.89-.757-7-1.214-10.43 1.006-2.51 2.391-3.74 4.57-5.27 7.678-.28.555-.56 1.109-.84 1.68a594.46 594.46 0 0 0-2.7 5.498l-1.92 3.867c-1.69 3.4-3.36 6.806-5.04 10.213-1.67 3.405-3.35 6.806-5.03 10.206l-1 2.003c-.65 1.321-1.3 2.641-1.96 3.962-.64 1.305-1.29 2.611-1.93 3.916-3.7 7.482-7.42 14.954-11.29 22.346-.33.617-.65 1.234-.98 1.869-6.12 11.528-6.12 11.528-9.4 13.009-2.07-.164-2.07-.164-3.46-1.204-1.59-2.036-1.8-3.551-2.17-6.104-.14-.902-.27-1.803-.41-2.733-.14-.963-.27-1.927-.41-2.92l-.9-6.016c-.22-1.468-.22-1.468-.44-2.966-.52-3.437-1.14-6.851-1.78-10.268-1.24-6.753-2.11-13.547-2.93-20.363-.45-3.667-.94-7.26-1.8-10.857-1.52-6.483-2.17-13.145-3.01-19.745-1.02-7.802-1.02-7.802-4.01-14.988-3.17-2.113-6.08-2.463-9.76-3.008l-2.14-.333c-2.27-.351-4.54-.693-6.81-1.034l-4.48-.69c-3.59-.553-7.17-1.099-10.76-1.643-7.23-1.096-14.45-2.215-21.67-3.355-.66-.102-1.31-.205-1.98-.311-3.79-.597-7.58-1.216-11.36-1.852-3.64-.611-7.29-1.19-10.95-1.743l-5.46-.851-2.83-.416-2.7-.429-2.42-.369c-2.3-.661-3.25-1.317-4.68-3.216-.17-2.078-.17-2.078.87-4.375 5.14-4.002 11.41-6.771 17.17-9.734.51-.264 1.02-.527 1.54-.798 7.98-4.12 16-8.142 24.04-12.137 1.59-.793 3.18-1.587 4.78-2.38 4.82-2.399 9.64-4.796 14.47-7.18 2.53-1.25 5.06-2.507 7.58-3.762.92-.453 1.85-.905 2.8-1.372 4.77-2.378 9.23-4.758 13.37-8.137 1.65-4.937.84-9.565-.27-14.547-1.11-5.191-1.96-10.382-2.68-15.641-1.08-7.82-2.29-15.614-3.56-23.406-.09-.576-.18-1.152-.28-1.745-.83-5.083-1.65-10.165-2.49-15.246l-1.44-8.876c-.14-.865-.28-1.73-.43-2.621-.39-2.387-.75-4.775-1.1-7.168-.13-.811-.25-1.623-.38-2.459-.11-.78-.21-1.56-.32-2.364-.1-.693-.19-1.386-.29-2.101.12-1.826.12-1.826 1.14-3.384 2.15-1.433 3.43-1.315 5.98-1.067Z"/><path fill="#000" d="M1222.38 238.75c.6.371 1.21.742 1.83 1.125 7.05 4.738 10.74 11.151 12.63 19.338 1.46 8.085-.31 15.818-4.41 22.959-4.54 6.254-10.44 10.58-17.93 12.578-11.05.939-19.49.17-28.27-7.109-5.82-5.523-9.39-12.331-9.61-20.405-.1-10.49 2.09-17.041 9.49-24.808 9.4-8.467 25.4-10.798 36.27-3.678Z"/><path fill="#838DA3" d="m1287.12 394.5 3.45.468 3.17.462c1.07.154 2.13.309 3.23.468.8.116 1.59.232 2.4.352 1.57 3.477 2.23 6.728 2.74 10.5.15 1.047.29 2.094.44 3.172.73 6.672.73 6.672-1.02 9.515-4.37 5.262-4.37 5.262-6.59 7.811-.42.479-.84.959-1.27 1.453-3.19 3.629-6.46 7.177-9.77 10.698-.72.77-.72.77-1.46 1.556-11.75 12.488-21.9 22.2-39.78 23.095-10.06.051-20.05-1.112-29.91-3.05 3.63-4.316 7.39-8.43 11.34-12.457.59-.599 1.17-1.199 1.78-1.817 5.35-5.472 10.73-10.919 16.11-16.357 3.61-3.647 7.21-7.302 10.8-10.978 3.47-3.566 6.97-7.111 10.48-10.641 1.33-1.346 2.66-2.7 3.97-4.061 1.85-1.901 3.71-3.771 5.59-5.638.53-.566 1.07-1.132 1.62-1.716 4.24-4.126 7.07-4.146 12.68-2.835Z"/><path fill="#B2B9C5" d="M1240.75 478.5c-.67.781-1.34 1.562-2.04 2.367-1.75 2.047-3.5 4.103-5.23 6.174a540.839 540.839 0 0 1-19.47 22.029c-.53.563-1.05 1.126-1.59 1.707-12.27 13.057-23.12 24.295-41.8 25.324-9.97.06-19.9-1.161-29.62-3.351.67-.781 1.34-1.562 2.04-2.367 1.75-2.047 3.5-4.103 5.23-6.174a540.839 540.839 0 0 1 19.47-22.029c.53-.563 1.05-1.126 1.59-1.707 21.71-23.114 39.5-29.167 71.42-21.973Z"/><path fill="#838DA3" d="M1169 550.25c-4.95 6.01-10.41 11.498-15.88 17.028-.51.515-1.02 1.029-1.55 1.56a2470.6 2470.6 0 0 1-8.07 8.138c-2.22 2.237-4.43 4.481-6.64 6.732-2.68 2.731-5.37 5.448-8.07 8.157-1.02 1.03-2.04 2.065-3.05 3.104a436.433 436.433 0 0 1-4.29 4.316c-.81.819-1.62 1.638-2.45 2.482-2.97 2.212-4.95 2.635-8.62 2.733-2.29-1.424-2.29-1.424-4.4-3.558-1.15-1.153-1.15-1.153-2.32-2.33-.78-.818-1.56-1.636-2.36-2.479-.8-.795-1.6-1.59-2.43-2.408-6.76-6.917-6.76-6.917-6.87-11.975.91-1.598.91-1.598 2.4-3.035 2.11-2.178 4.04-4.339 5.78-6.819 18.15-25.798 39.21-24.705 68.82-21.646Z"/><path fill="#000" d="M1435 453.125c2.95 2.451 4.2 3.723 4.64 7.543.01 2.171-.07 4.295-.26 6.457l3.22-.109c4.35.023 6.91.723 10.17 3.718 1.92 3.273 2.24 5.804 1.48 9.516-1.57 2.459-2.64 3.946-5.25 5.25-1.64.062-3.28.074-4.92.055l-2.66-.024-2.04-.031.12 1.952c.26 7.034.26 7.034-1.77 10.407-3.11 2.749-5.46 2.856-9.5 2.83-3.14-.498-4.49-2.241-6.35-4.689-1.11-2.209-.97-3.773-.93-6.234 0-.797.01-1.593.02-2.414l.03-1.852-1.95.154c-7.04.325-7.04.325-10.41-2.232-2.4-3.366-2.92-5.135-2.51-9.297 1.5-2.896 2.66-4.742 5.46-6.453 3.22-.731 6.11-.659 9.41-.547l-.12-1.538c-.23-4.912.18-7.779 3.62-11.587 3.58-2.224 6.51-2.016 10.5-.875ZM1381.62 174c2.74 1.531 2.74 1.531 4.38 4.375.34 3.532.25 6.965 0 10.5l2.14-.154c7.54-.318 7.54-.318 11.2 1.795 2.18 3.892 2.38 7.127 1.53 11.484-1.53 2.734-1.53 2.734-4.37 4.375-3.53.344-6.96.254-10.5 0 .05.707.1 1.414.15 2.143.32 7.539.32 7.539-1.79 11.201-3.87 2.165-7.15 2.42-11.49 1.531-2.74-1.96-3.99-3.271-5.08-6.453-.2-2.815-.22-5.601-.17-8.422l-1.95.154c-6.87.318-6.87.318-10.46-1.795-2.25-3.88-2.44-7.107-1.59-11.484 1.59-2.734 1.59-2.734 4.38-4.375 3.24-.342 6.38-.256 9.62 0l-.1-2.734c.13-4.246.9-7.133 3.17-10.719 3.5-2.274 6.9-2.133 10.93-1.422Z"/><path fill="#8DD9EF" d="M1210.12 252.75c3.77 1.956 6.62 4.183 8.75 7.875.61 3.739.44 6.84-1.03 10.336-2.22 2.669-4.61 4.735-7.72 6.289-5.34.445-7.98.068-12.25-3.5-2.53-2.884-3.4-5.166-3.77-9.023.42-4.954 2.49-7.368 6.18-10.555 3.49-1.742 6.03-2.178 9.84-1.422Z"/><path fill="#000" d="M1518.13 317.5c2.73 1.641 2.73 1.641 4.37 4.375.87 4.398.68 7.617-1.64 11.484-3.87 2.321-7.09 2.506-11.48 1.641-2.74-1.641-2.74-1.641-4.38-4.375-.87-4.398-.68-7.617 1.64-11.484 3.87-2.321 7.09-2.506 11.49-1.641ZM1172.5 188.875c2.73 1.641 2.73 1.641 4.38 4.375.86 4.398.67 7.617-1.65 11.484-3.86 2.321-7.08 2.506-11.48 1.641-2.73-1.641-2.73-1.641-4.37-4.375-.87-4.398-.68-7.617 1.64-11.484 3.86-2.321 7.08-2.506 11.48-1.641ZM1518.13 174c2.73 1.641 2.73 1.641 4.37 4.375.87 4.398.68 7.617-1.64 11.484-3.87 2.321-7.09 2.506-11.48 1.641-2.74-1.641-2.74-1.641-4.38-4.375-.87-4.398-.68-7.617 1.64-11.484 3.87-2.321 7.09-2.506 11.49-1.641Z"/><path fill="#030201" d="M1460.24 354.715c2.77.603 4.34 1.87 6.26 3.91 1.51 3.028 1.42 6.322.88 9.625-2.78 2.921-5.04 4.272-9.03 4.648-3.74-.317-5.02-1.114-7.6-3.773-1.07-3.196-1.22-5.388-.87-8.75 2.71-4.82 5.05-6.014 10.36-5.66Z"/></g></g><defs><radialGradient id="a" cx="0" cy="0" r="1" gradientTransform="matrix(860.5113 397.9766 -327.4206 707.954 860.451 397.963)" gradientUnits="userSpaceOnUse"><stop stop-color="#fff"/><stop offset="1" stop-color="#BABABA"/></radialGradient><radialGradient id="c" cx="0" cy="0" r="1" gradientTransform="matrix(0 350 -350 0 1298.5 398)" gradientUnits="userSpaceOnUse"><stop stop-color="#fff"/><stop offset="1" stop-color="#fff" stop-opacity="0"/></radialGradient><clipPath id="b"><path fill="#fff" d="M0 0h1720v796H0z"/></clipPath><clipPath id="d"><path fill="#fff" d="M1074.5 174h448v448h-448z"/></clipPath></defs></svg>